<svg width="13" height="15" viewBox="0 0 13 15" fill="none" xmlns="http://www.w3.org/2000/svg">
<path d="M1.54167 14.5832C1.15208 14.5832 0.818576 14.4445 0.541146 14.167C0.263715 13.8896 0.125 13.5561 0.125 13.1665V3.24984C0.125 2.86025 0.263715 2.52675 0.541146 2.24932C0.818576 1.97189 1.15208 1.83317 1.54167 1.83317H2.25V0.416504H3.66667V1.83317H9.33333V0.416504H10.75V1.83317H11.4583C11.8479 1.83317 12.1814 1.97189 12.4589 2.24932C12.7363 2.52675 12.875 2.86025 12.875 3.24984V13.1665C12.875 13.5561 12.7363 13.8896 12.4589 14.167C12.1814 14.4445 11.8479 14.5832 11.4583 14.5832H1.54167ZM1.54167 13.1665H11.4583V6.08317H1.54167V13.1665ZM1.54167 4.6665H11.4583V3.24984H1.54167V4.6665ZM6.5 8.9165C6.29931 8.9165 6.13108 8.84862 5.99531 8.71286C5.85955 8.57709 5.79167 8.40886 5.79167 8.20817C5.79167 8.00748 5.85955 7.83925 5.99531 7.70348C6.13108 7.56772 6.29931 7.49984 6.5 7.49984C6.70069 7.49984 6.86892 7.56772 7.00469 7.70348C7.14045 7.83925 7.20833 8.00748 7.20833 8.20817C7.20833 8.40886 7.14045 8.57709 7.00469 8.71286C6.86892 8.84862 6.70069 8.9165 6.5 8.9165ZM3.66667 8.9165C3.46597 8.9165 3.29774 8.84862 3.16198 8.71286C3.02622 8.57709 2.95833 8.40886 2.95833 8.20817C2.95833 8.00748 3.02622 7.83925 3.16198 7.70348C3.29774 7.56772 3.46597 7.49984 3.66667 7.49984C3.86736 7.49984 4.03559 7.56772 4.17135 7.70348C4.30712 7.83925 4.375 8.00748 4.375 8.20817C4.375 8.40886 4.30712 8.57709 4.17135 8.71286C4.03559 8.84862 3.86736 8.9165 3.66667 8.9165ZM9.33333 8.9165C9.13264 8.9165 8.96441 8.84862 8.82865 8.71286C8.69288 8.57709 8.625 8.40886 8.625 8.20817C8.625 8.00748 8.69288 7.83925 8.82865 7.70348C8.96441 7.56772 9.13264 7.49984 9.33333 7.49984C9.53403 7.49984 9.70226 7.56772 9.83802 7.70348C9.97378 7.83925 10.0417 8.00748 10.0417 8.20817C10.0417 8.40886 9.97378 8.57709 9.83802 8.71286C9.70226 8.84862 9.53403 8.9165 9.33333 8.9165ZM6.5 11.7498C6.29931 11.7498 6.13108 11.682 5.99531 11.5462C5.85955 11.4104 5.79167 11.2422 5.79167 11.0415C5.79167 10.8408 5.85955 10.6726 5.99531 10.5368C6.13108 10.4011 6.29931 10.3332 6.5 10.3332C6.70069 10.3332 6.86892 10.4011 7.00469 10.5368C7.14045 10.6726 7.20833 10.8408 7.20833 11.0415C7.20833 11.2422 7.14045 11.4104 7.00469 11.5462C6.86892 11.682 6.70069 11.7498 6.5 11.7498ZM3.66667 11.7498C3.46597 11.7498 3.29774 11.682 3.16198 11.5462C3.02622 11.4104 2.95833 11.2422 2.95833 11.0415C2.95833 10.8408 3.02622 10.6726 3.16198 10.5368C3.29774 10.4011 3.46597 10.3332 3.66667 10.3332C3.86736 10.3332 4.03559 10.4011 4.17135 10.5368C4.30712 10.6726 4.375 10.8408 4.375 11.0415C4.375 11.2422 4.30712 11.4104 4.17135 11.5462C4.03559 11.682 3.86736 11.7498 3.66667 11.7498ZM9.33333 11.7498C9.13264 11.7498 8.96441 11.682 8.82865 11.5462C8.69288 11.4104 8.625 11.2422 8.625 11.0415C8.625 10.8408 8.69288 10.6726 8.82865 10.5368C8.96441 10.4011 9.13264 10.3332 9.33333 10.3332C9.53403 10.3332 9.70226 10.4011 9.83802 10.5368C9.97378 10.6726 10.0417 10.8408 10.0417 11.0415C10.0417 11.2422 9.97378 11.4104 9.83802 11.5462C9.70226 11.682 9.53403 11.7498 9.33333 11.7498Z" fill="black"/>
</svg>
