<svg width="21" height="20" viewBox="0 0 21 20" fill="none" xmlns="http://www.w3.org/2000/svg">
<path d="M2.6875 19.2754C1.25195 19.2754 0.490234 18.4941 0.490234 16.9512V10.2227C0.490234 8.68945 1.25195 7.9082 2.6875 7.9082H10.6758V5.58398C10.6758 1.91211 13.0684 0.134766 15.627 0.134766C18.1758 0.134766 20.5879 1.91211 20.5879 5.58398V7.54688C20.5879 8.15234 20.2363 8.41602 19.8164 8.41602C19.377 8.41602 19.0352 8.12305 19.0352 7.54688V5.37891C19.0352 2.9082 17.4531 1.60938 15.627 1.60938C13.8008 1.60938 12.2188 2.9082 12.2188 5.37891V7.95703C13.2637 8.15234 13.8203 8.91406 13.8203 10.2227V16.9512C13.8203 18.4941 13.0586 19.2754 11.623 19.2754H2.6875ZM2.73633 17.8008H11.5742C12.0039 17.8008 12.2383 17.5371 12.2383 17.0586V10.1152C12.2383 9.63672 12.0039 9.38281 11.5742 9.38281H2.73633C2.31641 9.38281 2.07227 9.63672 2.07227 10.1152V17.0586C2.07227 17.5371 2.31641 17.8008 2.73633 17.8008Z" fill="black"/>
</svg>
