<svg width="46" height="42" viewBox="0 0 46 42" fill="none" xmlns="http://www.w3.org/2000/svg">
<path d="M4.24967 41.7502C3.10384 41.7502 2.12294 41.3422 1.30697 40.5262C0.490994 39.7102 0.0830078 38.7293 0.0830078 37.5835V12.5835C0.0830078 11.4377 0.490994 10.4568 1.30697 9.64079C2.12294 8.82482 3.10384 8.41683 4.24967 8.41683H10.8122L14.6663 4.25016H27.1663V8.41683H16.4893L12.6872 12.5835H4.24967V37.5835H37.583V18.8335H41.7497V37.5835C41.7497 38.7293 41.3417 39.7102 40.5257 40.5262C39.7097 41.3422 38.7288 41.7502 37.583 41.7502H4.24967ZM37.583 12.5835V8.41683H33.4163V4.25016H37.583V0.0834961H41.7497V4.25016H45.9163V8.41683H41.7497V12.5835H37.583ZM20.9163 34.4585C23.5205 34.4585 25.734 33.547 27.557 31.7241C29.3799 29.9012 30.2913 27.6877 30.2913 25.0835C30.2913 22.4793 29.3799 20.2658 27.557 18.4429C25.734 16.62 23.5205 15.7085 20.9163 15.7085C18.3122 15.7085 16.0986 16.62 14.2757 18.4429C12.4528 20.2658 11.5413 22.4793 11.5413 25.0835C11.5413 27.6877 12.4528 29.9012 14.2757 31.7241C16.0986 33.547 18.3122 34.4585 20.9163 34.4585ZM20.9163 30.2918C19.458 30.2918 18.2254 29.7884 17.2184 28.7814C16.2115 27.7745 15.708 26.5418 15.708 25.0835C15.708 23.6252 16.2115 22.3925 17.2184 21.3856C18.2254 20.3786 19.458 19.8752 20.9163 19.8752C22.3747 19.8752 23.6073 20.3786 24.6143 21.3856C25.6212 22.3925 26.1247 23.6252 26.1247 25.0835C26.1247 26.5418 25.6212 27.7745 24.6143 28.7814C23.6073 29.7884 22.3747 30.2918 20.9163 30.2918Z" fill="#CBCBCB"/>
</svg>
