<svg width="32" height="29" viewBox="0 0 32 29" fill="none" xmlns="http://www.w3.org/2000/svg">
<mask id="mask0_6990_933" style="mask-type:luminance" maskUnits="userSpaceOnUse" x="0" y="1" width="32" height="28">
<path d="M20.1964 4.13294C15.7517 7.04038 12.8037 3.89851 10.4628 3.01898C8.12193 2.13945 0 2.5493 0 10.8773C0 19.2054 5.45142 21.1341 4.06057 24.8916C2.66973 28.649 10.5724 30.1737 14.0748 28.0031C17.5772 25.8326 22.0583 25.3637 23.7119 26.126C25.3656 26.8883 29.5933 25.5785 30.817 21.5415C32.0407 17.5045 32.986 8.70763 30.094 4.30835C27.2019 -0.0909219 22.2589 2.78373 20.1964 4.13294Z" fill="white"/>
</mask>
<g mask="url(#mask0_6990_933)">
<path fill-rule="evenodd" clip-rule="evenodd" d="M20.1964 4.13294C15.7517 7.04038 12.8037 3.89851 10.4628 3.01898C8.12193 2.13945 0 2.5493 0 10.8773C0 19.2054 5.45142 21.1341 4.06057 24.8916C2.66973 28.649 10.5724 30.1737 14.0748 28.0031C17.5772 25.8326 22.0583 25.3637 23.7119 26.126C25.3656 26.8883 29.5933 25.5785 30.817 21.5415C32.0407 17.5045 32.986 8.70763 30.094 4.30835C27.2019 -0.0909219 22.2589 2.78373 20.1964 4.13294Z" fill="#CCE9FF"/>
<path fill-rule="evenodd" clip-rule="evenodd" d="M9.97771 12.2268C11.1462 12.2268 12.0994 11.2219 12.0994 9.98986C12.0994 8.75787 11.1462 7.75293 9.97771 7.75293C8.80922 7.75293 7.85608 8.75787 7.85608 9.98986C7.85608 11.2219 8.80922 12.2268 9.97771 12.2268Z" fill="#FD7D7C"/>
<path fill-rule="evenodd" clip-rule="evenodd" d="M8.91103 9.34182C9.15204 9.08853 9.54542 9.08853 9.78565 9.34182L9.97768 9.54428L10.1697 9.34182C10.4099 9.08853 10.8041 9.08853 11.0443 9.34182C11.6663 9.99757 10.7411 10.7632 9.97768 11.2033C9.28109 10.8664 8.2883 9.99839 8.91103 9.34182Z" fill="#D1544B"/>
<path fill-rule="evenodd" clip-rule="evenodd" d="M24.9365 9.04533C26.0459 9.04533 26.9508 8.09121 26.9508 6.92151C26.9508 5.75181 26.0459 4.79688 24.9365 4.79688C23.8271 4.79688 22.9221 5.75099 22.9221 6.92151C22.9221 8.09121 23.8271 9.04533 24.9365 9.04533Z" fill="#2994F3"/>
<path d="M25.7769 6.78467H24.1302V7.05762H25.7769V6.78467Z" fill="#FD7D7C"/>
<path fill-rule="evenodd" clip-rule="evenodd" d="M23.8263 6.42578C23.9227 6.42578 24.002 6.50939 24.002 6.61103V7.23236C24.002 7.334 23.9227 7.41761 23.8263 7.41761C23.7299 7.41761 23.6506 7.334 23.6506 7.23236V6.61103C23.6506 6.50939 23.7299 6.42578 23.8263 6.42578Z" fill="#FD7D7C"/>
<path fill-rule="evenodd" clip-rule="evenodd" d="M23.9903 6.22119C23.8939 6.22119 23.8146 6.3048 23.8146 6.40644V7.43761C23.8146 7.53925 23.8939 7.62286 23.9903 7.62286C24.0867 7.62286 24.166 7.54007 24.166 7.43761V6.40644C24.1653 6.30398 24.0867 6.22119 23.9903 6.22119Z" fill="#FD7D7C"/>
<path fill-rule="evenodd" clip-rule="evenodd" d="M24.159 6.0625C24.2554 6.0625 24.3347 6.14611 24.3347 6.24775V7.59614C24.3347 7.69778 24.2554 7.78139 24.159 7.78139C24.0626 7.78139 23.9833 7.69778 23.9833 7.59614V6.24775C23.9841 6.14611 24.0626 6.0625 24.159 6.0625Z" fill="#FD7D7C"/>
<path fill-rule="evenodd" clip-rule="evenodd" d="M26.0467 6.42578C25.9503 6.42578 25.871 6.50939 25.871 6.61103V7.23236C25.871 7.334 25.9503 7.41761 26.0467 7.41761C26.1431 7.41761 26.2224 7.334 26.2224 7.23236V6.61103C26.2224 6.50939 26.1431 6.42578 26.0467 6.42578Z" fill="#FD7D7C"/>
<path fill-rule="evenodd" clip-rule="evenodd" d="M25.8826 6.22119C25.979 6.22119 26.0583 6.3048 26.0583 6.40644V7.43761C26.0583 7.53925 25.979 7.62286 25.8826 7.62286C25.7862 7.62286 25.7069 7.54007 25.7069 7.43761V6.40644C25.7077 6.30398 25.7862 6.22119 25.8826 6.22119Z" fill="#FD7D7C"/>
<path fill-rule="evenodd" clip-rule="evenodd" d="M25.7139 6.0625C25.6175 6.0625 25.5382 6.14611 25.5382 6.24775V7.59614C25.5382 7.69778 25.6175 7.78139 25.7139 7.78139C25.8103 7.78139 25.8896 7.69778 25.8896 7.59614V6.24775C25.8888 6.14611 25.8103 6.0625 25.7139 6.0625Z" fill="#FD7D7C"/>
<path fill-rule="evenodd" clip-rule="evenodd" d="M28.0905 15.479C29.3282 15.479 30.3373 14.4151 30.3373 13.1101C30.3373 11.806 29.3282 10.7412 28.0905 10.7412C26.8536 10.7412 25.8437 11.8052 25.8437 13.1101C25.8445 14.4151 26.8536 15.479 28.0905 15.479Z" fill="#FD7D7C"/>
<path fill-rule="evenodd" clip-rule="evenodd" d="M28.0205 12.1361C28.0384 11.9681 28.1107 11.6484 28.2126 11.6262C28.2716 11.614 28.3486 11.6394 28.2856 11.7877C28.2242 11.932 28.1239 12.1672 28.1169 12.5402C28.1107 12.8738 28.0003 12.3279 28.0205 12.1361Z" fill="#0F538C"/>
<path fill-rule="evenodd" clip-rule="evenodd" d="M28.0594 12.2657C28.04 11.9903 27.8176 11.7772 27.4973 11.7813C27.177 11.7854 27.0853 11.8272 27.0853 11.8272C27.0853 11.8272 27.3543 12.5117 28.0594 12.2657Z" fill="#0F538C"/>
<path fill-rule="evenodd" clip-rule="evenodd" d="M27.799 14.5979C27.9848 14.6192 28.033 14.4897 28.096 14.4897C28.1605 14.4897 28.2398 14.6192 28.3852 14.5979C28.7483 14.5454 29.8926 12.8937 28.9496 12.3716C28.714 12.2413 28.3518 12.4134 28.0913 12.5987C27.8643 12.4372 27.5557 12.2593 27.3333 12.3487C26.2363 12.7929 27.359 14.5479 27.799 14.5979Z" fill="#D1544B"/>
<path d="M9.25291 21.4177C9.25777 20.1094 8.25579 19.0447 7.01491 19.0395C5.77404 19.0344 4.76416 20.0909 4.7593 21.3992C4.75443 22.7075 5.75642 23.7722 6.99729 23.7774C8.23817 23.7825 9.24804 22.726 9.25291 21.4177Z" fill="#0F538C"/>
<path fill-rule="evenodd" clip-rule="evenodd" d="M6.26776 20.1592H7.7449C7.79388 20.1592 7.83897 20.1985 7.83353 20.2452L7.55287 22.5707C7.54743 22.6182 7.51322 22.6568 7.46424 22.6568H6.56474C6.51576 22.6568 6.48233 22.6174 6.47611 22.5707L6.17991 20.2452C6.17291 20.1985 6.21878 20.1592 6.26776 20.1592Z" fill="#F7F7F7"/>
<path fill-rule="evenodd" clip-rule="evenodd" d="M7.14001 21.2183C6.86402 21.079 6.62923 21.0937 6.46442 21.1864L6.63001 22.4848H7.39735L7.54817 21.2372C7.40434 21.2716 7.25741 21.2773 7.14001 21.2183Z" fill="#CCE9FF"/>
<path fill-rule="evenodd" clip-rule="evenodd" d="M6.58959 21.3447C6.58027 21.4808 6.60748 21.7619 6.62847 21.9291C6.65412 22.1406 6.76219 22.098 6.7513 21.9644C6.74275 21.8595 6.73575 21.4472 6.67123 21.3144C6.63313 21.2373 6.59426 21.2709 6.58959 21.3447Z" fill="white"/>
<path fill-rule="evenodd" clip-rule="evenodd" d="M6.78004 22.1866C6.7746 22.1243 6.67819 22.1054 6.66809 22.1677C6.64865 22.2981 6.79092 22.3153 6.78004 22.1866Z" fill="white"/>
<path d="M22.4145 38.8942L21.5632 42.5681C21.5632 42.5681 19.894 42.6697 17.7475 39.5123L17.7552 39.6082L17.9589 42.1304L18.0483 43.2402L15.1112 43.914C15.1112 43.914 13.4599 39.6434 12.1678 34.2572C10.8757 28.8702 11.8778 24.5259 11.8778 24.5259H16.5362C16.5362 24.5259 18.5467 26.6538 19.244 28.7604C19.8038 30.4506 19.1974 31.7973 19.447 32.8613C19.6981 33.9261 22.4145 38.8942 22.4145 38.8942Z" fill="#0C4772"/>
<path d="M16.8861 22.5085L16.537 24.5266H11.8778V24.5241L11.5979 22.4307L16.8861 22.5085Z" fill="#E87354"/>
<path d="M18.2147 15.2701L16.886 22.5096L11.5979 22.4317C11.4813 22.185 10.3097 20.703 10.6028 19.6538C10.8959 18.6046 12.4181 14.9004 12.4181 14.9004L13.9442 14.9979L13.9434 15.0078C13.9434 15.0078 14.8414 16.5053 16.4631 15.1996C16.4616 15.1865 16.46 15.1733 16.4584 15.1586L18.2147 15.2701Z" fill="#FD7D7C"/>
<path d="M28.8058 16.9206C28.4979 17.1517 27.2758 17.6378 27.1879 17.8698C27.1001 18.1009 24.3541 25.1929 22.8171 25.1314C21.2801 25.0699 17.9504 19.1165 17.6728 18.8296C17.3953 18.5419 17.0586 15.2394 18.2147 15.2697C18.8483 15.2869 19.7665 16.5042 20.1179 17.6157C20.4693 18.7264 22.4891 22.0609 22.4891 22.0609C22.4891 22.0609 26.6717 17.2403 26.7424 16.9214C26.9181 16.1345 26.8591 15.2697 26.8591 15.2697C26.8591 15.2697 27.2921 15.1984 27.2983 15.6763C27.303 16.0419 27.4973 16.596 27.8044 16.596C27.9156 16.596 28.033 16.5845 28.1512 16.5468C28.2126 16.2402 28.4217 15.2566 28.5889 15.2566C28.8322 15.2566 28.6728 15.9583 28.5959 16.2484C28.6464 16.1894 28.6946 16.1206 28.7397 16.0411C29.0032 15.5779 29.0693 15.3058 29.3329 15.2566C29.5972 15.2066 29.1136 16.6886 28.8058 16.9206Z" fill="#FC7354"/>
<path d="M12.4181 14.8992C12.4181 14.8992 11.5108 14.6057 9.71026 14.8992C6.10838 15.4861 3.91366 13.7262 3.91366 13.7262C3.91366 13.7262 5.75775 11.0868 6.10916 10.2532C6.46056 9.41957 7.69047 7.38264 7.69047 7.38264C7.69047 7.38264 8.41582 8.09987 8.72369 8.23922C9.03078 8.37774 9.7779 8.58676 9.7779 8.58676C9.7779 8.58676 9.82688 8.25397 9.6022 8.12364C8.96392 7.75314 8.78899 7.24411 9.31532 7.38264C9.84243 7.52117 10.1495 7.84576 10.1938 8.12364C10.2374 8.40151 10.3929 8.72529 10.5569 8.72529C10.7209 8.72529 10.5888 7.14165 10.3252 6.98427C10.0617 6.82689 8.21758 6.06376 7.6034 6.24901C6.98844 6.43426 3.34069 10.627 2.46451 11.7811C1.82468 12.6246 1.0589 13.7721 1.49815 14.3738C1.93741 14.9754 4.51462 16.8009 6.63626 17.2443C9.22747 17.7861 11.3919 17.4632 11.276 17.7656C11.1594 18.0689 12.4181 14.8992 12.4181 14.8992Z" fill="#E87354"/>
<path d="M16.4585 15.1574C16.46 15.1714 16.4616 15.1853 16.4631 15.1984C14.8414 16.505 13.9434 15.0066 13.9434 15.0066L13.9442 14.9968L14.0398 13.8L14.1207 12.7984H14.1199C14.0919 12.7951 13.1948 12.7107 12.9965 12.632C12.7952 12.5525 12.6109 10.559 12.74 9.91143C12.8309 9.4565 13.0587 8.72452 13.3689 8.1868C13.5555 8.04417 13.8781 7.93597 14.3461 8.24418C15.1306 8.76058 15.2472 10.627 15.2472 10.627C15.2472 10.627 15.6655 9.8147 16.1444 10.0393C16.6233 10.2647 15.922 11.2467 15.95 11.709C15.9935 12.4246 16.5844 13.0779 16.5844 13.0779C16.5844 13.0779 16.3869 14.4984 16.4585 15.1574Z" fill="#E87354"/>
<path d="M13.3697 8.18608C13.5571 8.04263 13.8789 7.93525 14.3469 8.24263C15.1314 8.75904 15.248 10.6255 15.248 10.6255C15.248 10.6255 15.6655 9.81316 16.1444 10.0386C16.6233 10.2632 15.922 11.246 15.95 11.7075C15.9936 12.4231 16.5844 13.0763 16.5844 13.0763C16.6077 13.0591 16.6303 13.0427 16.6536 13.0247C16.6536 13.0247 16.6536 13.0247 16.6544 13.0239C16.7523 12.9493 16.8449 12.8731 16.9335 12.7944C18.2738 11.6042 18.5576 9.97792 18.1611 9.16151C18.0437 8.92052 17.9395 8.71724 17.847 8.5451C17.847 8.5451 18.9626 8.43608 19.1134 9.35659C19.2642 10.2763 17.4777 11.6681 18.3679 13.4878C18.8281 14.4297 17.8579 14.2116 17.0921 16.5043C15.8956 20.0847 20.0852 22.5085 20.0852 22.5085C20.0852 22.5085 18.5995 19.933 21.5328 18.8043C22.9602 18.2551 23.055 15.6461 21.9161 14.7174C21.057 14.0165 20.2679 12.7444 21.347 11.0517C22.4261 9.35905 21.3081 6.87867 19.6242 6.49834C17.9403 6.118 17.2787 7.65984 17.2787 7.65984C17.0773 7.58033 15.164 6.57703 13.8027 7.64344C13.6465 7.7664 13.5003 7.95902 13.3697 8.18608Z" fill="#1E0F00"/>
<path d="M15.2588 12.4478C15.171 13.2297 14.0406 13.7994 14.0406 13.7994L14.1214 12.7978C14.6415 12.7387 15.2588 12.4478 15.2588 12.4478Z" fill="#FC7354"/>
<path d="M13.8664 7.74579C13.8664 7.74579 12.8612 8.03186 13.1473 8.65073C13.4334 9.26959 15.2596 9.7319 15.2596 9.7319C15.2596 9.7319 13.9022 8.25564 14.2964 7.9212C14.6905 7.58677 13.8664 7.74579 13.8664 7.74579Z" fill="#1E0F00"/>
</g>
<path d="M21.3695 28.9998C22.2381 28.9998 22.9423 28.4314 22.9423 27.7301C22.9423 27.0289 22.2381 26.4604 21.3695 26.4604C20.5009 26.4604 19.7968 27.0289 19.7968 27.7301C19.7968 28.4314 20.5009 28.9998 21.3695 28.9998Z" fill="#CCE9FF"/>
<path d="M14.427 2.5394C15.2956 2.5394 15.9997 1.97093 15.9997 1.2697C15.9997 0.568464 15.2956 0 14.427 0C13.5583 0 12.8542 0.568464 12.8542 1.2697C12.8542 1.97093 13.5583 2.5394 14.427 2.5394Z" fill="#CCE9FF"/>
</svg>
