<svg width="13" height="15" viewBox="0 0 13 15" fill="none" xmlns="http://www.w3.org/2000/svg">
<path d="M4.375 11.7501C3.98542 11.7501 3.65191 11.6114 3.37448 11.3339C3.09705 11.0565 2.95833 10.723 2.95833 10.3334V1.83341C2.95833 1.44383 3.09705 1.11032 3.37448 0.832894C3.65191 0.555463 3.98542 0.416748 4.375 0.416748H10.75C11.1396 0.416748 11.4731 0.555463 11.7505 0.832894C12.028 1.11032 12.1667 1.44383 12.1667 1.83341V10.3334C12.1667 10.723 12.028 11.0565 11.7505 11.3339C11.4731 11.6114 11.1396 11.7501 10.75 11.7501H4.375ZM4.375 10.3334H10.75V1.83341H4.375V10.3334ZM1.54167 14.5834C1.15208 14.5834 0.818576 14.4447 0.541146 14.1673C0.263715 13.8898 0.125 13.5563 0.125 13.1667V3.25008H1.54167V13.1667H9.33333V14.5834H1.54167Z" fill="#A7A7A8"/>
</svg>
