<svg width="14" height="13" viewBox="0 0 14 13" fill="none" xmlns="http://www.w3.org/2000/svg">
<path d="M2.69141 12.4648C2.45117 12.2832 2.39844 11.9844 2.54492 11.5566L3.76953 7.91211L0.640625 5.66211C0.277344 5.4043 0.125 5.13477 0.224609 4.8418C0.318359 4.56055 0.59375 4.41992 1.04492 4.42578L4.88281 4.44922L6.04883 0.787109C6.18945 0.353516 6.40039 0.136719 6.69922 0.136719C7.00391 0.136719 7.21484 0.353516 7.35547 0.787109L8.52148 4.44922L12.3594 4.42578C12.8105 4.41992 13.0859 4.56055 13.1797 4.8418C13.2734 5.13477 13.127 5.4043 12.7637 5.66211L9.63477 7.91211L10.8594 11.5566C11.0059 11.9844 10.9531 12.2832 10.7129 12.4648C10.4668 12.6523 10.168 12.5879 9.80469 12.3242L6.69922 10.0449L3.59961 12.3242C3.23633 12.5879 2.93164 12.6523 2.69141 12.4648Z" fill="#FFCB29"/>
</svg>
