<svg width="25" height="25" viewBox="0 0 25 25" fill="none" xmlns="http://www.w3.org/2000/svg">
<circle cx="12.5" cy="12.5" r="12.5" fill="#FFCB29"/>
<path d="M18.2 20.2L16.2333 18.2333C15.7 18.5889 15.125 18.8611 14.5083 19.05C13.8917 19.2389 13.2389 19.3333 12.55 19.3333C11.6278 19.3333 10.7611 19.1583 9.95 18.8083C9.13889 18.4583 8.43333 17.9833 7.83333 17.3833C7.23333 16.7833 6.75833 16.0778 6.40833 15.2667C6.05833 14.4556 5.88333 13.5889 5.88333 12.6667C5.88333 11.9778 5.97778 11.325 6.16667 10.7083C6.35556 10.0917 6.62778 9.51667 6.98333 8.98333L5 7L5.95 6.05L19.15 19.25L18.2 20.2ZM11.8833 17.9667V16.6667C11.5167 16.6667 11.2028 16.5361 10.9417 16.275C10.6806 16.0139 10.55 15.7 10.55 15.3333V14.6667L7.35 11.4667C7.31667 11.6667 7.28611 11.8667 7.25833 12.0667C7.23056 12.2667 7.21667 12.4667 7.21667 12.6667C7.21667 14.0111 7.65833 15.1889 8.54167 16.2C9.425 17.2111 10.5389 17.8 11.8833 17.9667ZM18.1167 16.3167L17.15 15.35C17.3833 14.9389 17.5639 14.5083 17.6917 14.0583C17.8194 13.6083 17.8833 13.1444 17.8833 12.6667C17.8833 11.5778 17.5806 10.5833 16.975 9.68333C16.3694 8.78333 15.5611 8.13333 14.55 7.73333V8C14.55 8.36667 14.4194 8.68056 14.1583 8.94167C13.8972 9.20278 13.5833 9.33333 13.2167 9.33333H11.8833V10.0833L8.9 7.1C9.43333 6.75556 10.0056 6.48611 10.6167 6.29167C11.2278 6.09722 11.8722 6 12.55 6C13.4722 6 14.3389 6.175 15.15 6.525C15.9611 6.875 16.6667 7.35 17.2667 7.95C17.8667 8.55 18.3417 9.25556 18.6917 10.0667C19.0417 10.8778 19.2167 11.7444 19.2167 12.6667C19.2167 13.3444 19.1194 13.9889 18.925 14.6C18.7306 15.2111 18.4611 15.7833 18.1167 16.3167Z" fill="white"/>
</svg>
