<svg width="25" height="25" viewBox="0 0 25 25" fill="none" xmlns="http://www.w3.org/2000/svg">
<circle cx="12.5" cy="12.4995" r="12.5" fill="#FE9A99"/>
<path d="M18.2 20.1995L16.2333 18.2328C15.7 18.5884 15.125 18.8606 14.5083 19.0495C13.8917 19.2384 13.2389 19.3328 12.55 19.3328C11.6278 19.3328 10.7611 19.1578 9.95 18.8078C9.13889 18.4578 8.43333 17.9828 7.83333 17.3828C7.23333 16.7828 6.75833 16.0773 6.40833 15.2662C6.05833 14.4551 5.88333 13.5884 5.88333 12.6662C5.88333 11.9773 5.97778 11.3245 6.16667 10.7078C6.35556 10.0912 6.62778 9.51618 6.98333 8.98285L5 6.99951L5.95 6.04951L19.15 19.2495L18.2 20.1995ZM11.8833 17.9662V16.6662C11.5167 16.6662 11.2028 16.5356 10.9417 16.2745C10.6806 16.0134 10.55 15.6995 10.55 15.3328V14.6662L7.35 11.4662C7.31667 11.6662 7.28611 11.8662 7.25833 12.0662C7.23056 12.2662 7.21667 12.4662 7.21667 12.6662C7.21667 14.0106 7.65833 15.1884 8.54167 16.1995C9.425 17.2106 10.5389 17.7995 11.8833 17.9662ZM18.1167 16.3162L17.15 15.3495C17.3833 14.9384 17.5639 14.5078 17.6917 14.0578C17.8194 13.6078 17.8833 13.144 17.8833 12.6662C17.8833 11.5773 17.5806 10.5828 16.975 9.68285C16.3694 8.78285 15.5611 8.13285 14.55 7.73285V7.99951C14.55 8.36618 14.4194 8.68007 14.1583 8.94118C13.8972 9.20229 13.5833 9.33285 13.2167 9.33285H11.8833V10.0828L8.9 7.09951C9.43333 6.75507 10.0056 6.48562 10.6167 6.29118C11.2278 6.09673 11.8722 5.99951 12.55 5.99951C13.4722 5.99951 14.3389 6.17451 15.15 6.52451C15.9611 6.87451 16.6667 7.34951 17.2667 7.94951C17.8667 8.54951 18.3417 9.25507 18.6917 10.0662C19.0417 10.8773 19.2167 11.744 19.2167 12.6662C19.2167 13.344 19.1194 13.9884 18.925 14.5995C18.7306 15.2106 18.4611 15.7828 18.1167 16.3162Z" fill="white"/>
</svg>
