<svg width="200" height="200" viewBox="0 0 200 200" fill="none" xmlns="http://www.w3.org/2000/svg">
<ellipse cx="100" cy="99.843" rx="100" ry="99.843" fill="white"/>
<path d="M90.9166 57.2626C90.9166 57.2626 73.3523 59.2414 72.2202 86.3966C71.2774 109.024 69.3468 121.637 78.5667 126.356C81.8634 128.044 85.7374 128.191 89.2586 127.038L126.898 114.682C126.898 114.682 127.466 73.9509 114.433 64.0506C101.4 54.1503 90.9198 57.2626 90.9198 57.2626H90.9166Z" fill="#2F2E41"/>
<path d="M111.665 119.683L92.6162 125.937V98.5605H109.898L111.665 119.683Z" fill="#F6A6A9"/>
<path d="M137.327 192.463C134.762 193.5 132.145 194.432 129.48 195.252C127.476 195.873 125.442 196.427 123.387 196.92C115.886 198.726 108.051 199.68 99.9986 199.68C97.7345 199.68 95.4897 199.606 93.2673 199.456C90.9935 199.305 88.7423 199.078 86.5167 198.774C85.6123 198.652 84.7144 198.521 83.8196 198.373C81.2701 197.96 78.7495 197.445 76.2673 196.84C75.4303 196.638 74.5965 196.423 73.7659 196.193C73.4805 196.119 73.1951 196.039 72.9129 195.959C71.7424 195.629 70.5782 195.28 69.4238 194.906C69.3468 194.883 69.2666 194.858 69.1896 194.832C68.157 194.499 67.1308 194.147 66.111 193.779C65.1938 193.449 64.283 193.103 63.3755 192.744L83.1654 127.711L83.9896 125.005L86.9143 115.396L86.9368 115.319L86.9592 115.249H121.52L121.751 116.373L127.418 144.05L131.5 163.998L135.515 183.603L137.167 191.672L137.327 192.463Z" fill="#DDDEDF"/>
<path d="M92.4106 115.265L90.0856 124.88L89.7617 126.228L89.5917 126.929L79.2783 169.614L72.9125 195.959C71.742 195.629 70.5779 195.28 69.4234 194.905C69.3464 194.883 69.2662 194.857 69.1893 194.832C68.1566 194.499 67.1304 194.147 66.1106 193.778C65.1934 193.449 64.2827 193.103 63.3751 192.744C60.2131 191.499 57.1312 190.093 54.1392 188.543C60.8192 155.532 67.5249 123.074 68.6152 120.356C69.0931 119.161 70.4303 118.246 72.2423 117.541C72.765 117.336 73.3294 117.151 73.9227 116.981C77.8127 115.873 83.0047 115.466 86.8979 115.322H86.9364C88.4885 115.268 89.8323 115.252 90.8007 115.252C91.7692 115.252 92.4106 115.268 92.4106 115.268V115.265Z" fill="#DDDEDF"/>
<path d="M94.973 106.139C105.456 106.139 113.955 97.6543 113.955 87.1874C113.955 76.7204 105.456 68.2354 94.973 68.2354C84.4896 68.2354 75.9912 76.7204 75.9912 87.1874C75.9912 97.6543 84.4896 106.139 94.973 106.139Z" fill="#F6A6A9"/>
<path d="M89.7845 64.3359C89.7845 64.3359 79.3396 106.681 90.9551 126.481L74.5933 123.011C74.5933 123.011 68.2532 76.66 81.004 68.2358L89.7878 64.3359H89.7845Z" fill="#2F2E41"/>
<path opacity="0.1" d="M86.5164 198.774C85.612 198.652 84.7141 198.521 83.8193 198.374C81.2698 197.961 78.7492 197.445 76.267 196.84C75.43 196.638 74.5962 196.424 73.7656 196.193L74.8335 188.015L77.6845 166.169L78.9673 170.901L80.1474 175.259L86.5164 198.774Z" fill="#272223"/>
<path opacity="0.1" d="M140.319 191.198C139.62 191.508 138.918 191.809 138.209 192.101C138.103 192.146 137.997 192.19 137.891 192.235C137.705 192.312 137.519 192.389 137.33 192.463C134.765 193.5 132.148 194.432 129.483 195.251C123.152 190.778 118.275 184.547 115.459 177.33L113.958 173.485L104.344 145.68L125.644 167.994L129.537 174.148L135.518 183.6L140.322 191.195H140.319V191.198Z" fill="#272223"/>
<path d="M161.17 178.739C155.61 183.062 149.581 186.808 143.167 189.888C142.368 190.272 141.56 190.644 140.749 191.009C140.604 191.073 140.463 191.137 140.319 191.198C139.62 191.508 138.917 191.809 138.209 192.101C137.859 191.966 137.513 191.822 137.17 191.672C133.652 190.135 130.509 187.797 127.735 185.066C124.008 181.387 120.956 176.988 118.56 172.832C117.38 170.786 116.36 168.797 115.497 166.985L115.484 166.956C113.159 162.048 112.008 158.436 112.008 158.436L108.913 145.747L108.064 142.266L103.228 122.453L101.47 115.249L104.093 115.133L111.261 114.82L119.166 114.471C120.988 114.608 122.764 114.948 124.474 115.479C129.961 117.16 134.732 120.753 137.866 125.697C146.479 139.295 160.272 163.28 161.174 178.739H161.17Z" fill="#DDDEDF"/>
<path d="M71.1071 106.422C75.2665 104.926 86.2758 104.92 91.2145 106.585C92.1734 106.908 92.7538 107.882 92.5871 108.877L92.3914 110.059C92.8212 109.995 93.2413 109.873 93.6389 109.691C94.8159 109.153 97.1345 108.423 99.4755 109.588C101.111 110.402 102.262 111.935 102.666 113.719C103.632 117.984 101.198 120.343 101.198 120.343L97.9555 123.382C95.2392 125.924 92.276 128.191 89.1108 130.144L89.0466 130.183L90.2011 123.248C90.8521 124.391 92.3241 124.765 93.4433 124.074C96.2718 122.325 100.893 118.822 100.332 114.846C99.9405 112.073 98.398 111.484 96.9164 111.609C95.2584 111.75 93.8121 112.79 93.1034 114.292C92.9334 114.65 92.6544 114.945 92.3081 115.137L91.4743 115.592L89.0306 130.292C88.9216 130.951 88.4982 131.521 87.8985 131.816C82.1517 134.63 75.9495 133.17 73.8041 132.514C73.3134 132.363 72.8933 132.04 72.6304 131.598L72.1686 130.833C72.0082 130.57 71.912 130.272 71.8799 129.968L69.7473 108.573C69.6543 107.629 70.2155 106.745 71.1103 106.422H71.1071Z" fill="#7896FF"/>
<path d="M90.7239 107.558C90.7239 108.06 86.3977 108.467 81.0614 108.467C75.7251 108.467 71.3989 108.06 71.3989 107.558C71.3989 107.055 75.7251 106.648 81.0614 106.648C86.3977 106.648 90.7239 107.055 90.7239 107.558Z" fill="#DEDFE0"/>
<path d="M95.3966 127.64C91.76 122.421 91.6285 116.283 95.1016 113.926C98.5747 111.57 104.334 113.888 107.971 119.11C109.453 121.176 110.395 123.571 110.723 126.097L125.834 148.404L114.744 155.417L101.025 132.683C98.7511 131.479 96.8205 129.75 95.3966 127.643V127.64Z" fill="#F6A6A9"/>
<path d="M104.34 145.683L116.828 134.207L141.518 157.161L118.557 172.831L104.34 145.683Z" fill="#DDDEDF"/>
<path opacity="0.1" d="M139.338 160.345L140.319 167.872L133.777 160.345V152.753L139.338 160.345Z" fill="#272223"/>
</svg>
