<svg width="15" height="15" viewBox="0 0 15 15" fill="none" xmlns="http://www.w3.org/2000/svg">
<path d="M13.2 14.2L11.2333 12.2333C10.7 12.5889 10.125 12.8611 9.50833 13.05C8.89167 13.2389 8.23889 13.3333 7.55 13.3333C6.62778 13.3333 5.76111 13.1583 4.95 12.8083C4.13889 12.4583 3.43333 11.9833 2.83333 11.3833C2.23333 10.7833 1.75833 10.0778 1.40833 9.26667C1.05833 8.45556 0.883333 7.58889 0.883333 6.66667C0.883333 5.97778 0.977778 5.325 1.16667 4.70833C1.35556 4.09167 1.62778 3.51667 1.98333 2.98333L0 1L0.95 0.05L14.15 13.25L13.2 14.2ZM6.88333 11.9667V10.6667C6.51667 10.6667 6.20278 10.5361 5.94167 10.275C5.68056 10.0139 5.55 9.7 5.55 9.33333V8.66667L2.35 5.46667C2.31667 5.66667 2.28611 5.86667 2.25833 6.06667C2.23056 6.26667 2.21667 6.46667 2.21667 6.66667C2.21667 8.01111 2.65833 9.18889 3.54167 10.2C4.425 11.2111 5.53889 11.8 6.88333 11.9667ZM13.1167 10.3167L12.15 9.35C12.3833 8.93889 12.5639 8.50833 12.6917 8.05833C12.8194 7.60833 12.8833 7.14444 12.8833 6.66667C12.8833 5.57778 12.5806 4.58333 11.975 3.68333C11.3694 2.78333 10.5611 2.13333 9.55 1.73333V2C9.55 2.36667 9.41945 2.68056 9.15833 2.94167C8.89722 3.20278 8.58333 3.33333 8.21667 3.33333H6.88333V4.08333L3.9 1.1C4.43333 0.755556 5.00556 0.486111 5.61667 0.291667C6.22778 0.0972222 6.87222 0 7.55 0C8.47222 0 9.33889 0.175 10.15 0.525C10.9611 0.875 11.6667 1.35 12.2667 1.95C12.8667 2.55 13.3417 3.25556 13.6917 4.06667C14.0417 4.87778 14.2167 5.74444 14.2167 6.66667C14.2167 7.34444 14.1194 7.98889 13.925 8.6C13.7306 9.21111 13.4611 9.78333 13.1167 10.3167Z" fill="white"/>
</svg>
