<svg width="17" height="20" viewBox="0 0 17 20" fill="none" xmlns="http://www.w3.org/2000/svg">
<path d="M0.573242 11.2871C0.573242 6.98047 4.03613 3.52637 8.34277 3.52637C8.87891 3.52637 9.39746 3.58789 9.85449 3.67578L7.5166 1.36426C7.39355 1.22363 7.32324 1.04785 7.32324 0.863281C7.32324 0.458984 7.62207 0.142578 8.01758 0.142578C8.22852 0.142578 8.4043 0.212891 8.52734 0.353516L12.1484 4.02734C12.2891 4.16797 12.3682 4.36133 12.3682 4.55469C12.3682 4.75684 12.3066 4.93262 12.1484 5.08203L8.52734 8.7207C8.4043 8.85254 8.2373 8.92285 8.01758 8.92285C7.62207 8.92285 7.32324 8.62402 7.32324 8.21973C7.32324 8.03516 7.39355 7.85938 7.52539 7.71875L10.1533 5.11719C9.63477 4.99414 9.01074 4.94141 8.34277 4.94141C4.81836 4.94141 1.98828 7.7627 1.98828 11.2871C1.98828 14.8203 4.81836 17.6504 8.34277 17.6504C11.8672 17.6504 14.6885 14.8203 14.6885 11.2871C14.6885 10.8652 14.9609 10.5576 15.374 10.5576C15.8047 10.5576 16.1035 10.8652 16.1035 11.2871C16.1035 15.6025 12.6494 19.0654 8.34277 19.0654C4.03613 19.0654 0.573242 15.6025 0.573242 11.2871Z" fill="black"/>
</svg>
