<svg width="15" height="20" viewBox="0 0 15 20" fill="none" xmlns="http://www.w3.org/2000/svg">
<path d="M3.18164 19.2754C1.74609 19.2754 0.984375 18.4941 0.984375 16.9512V10.2227C0.984375 8.86523 1.58008 8.10352 2.69336 7.9375V5.57422C2.69336 1.90234 5.0957 0.125 7.64453 0.125C10.2031 0.125 12.6055 1.90234 12.6055 5.57422V7.9375C13.7285 8.10352 14.3145 8.875 14.3145 10.2227V16.9512C14.3145 18.4941 13.5527 19.2754 12.1172 19.2754H3.18164ZM4.24609 5.36914V7.9082H11.0625V5.36914C11.0625 2.89844 9.4707 1.59961 7.64453 1.59961C5.81836 1.59961 4.24609 2.89844 4.24609 5.36914ZM3.23047 17.8008H12.0684C12.498 17.8008 12.7324 17.5371 12.7324 17.0586V10.1152C12.7324 9.63672 12.498 9.38281 12.0684 9.38281H3.23047C2.81055 9.38281 2.56641 9.63672 2.56641 10.1152V17.0586C2.56641 17.5371 2.81055 17.8008 3.23047 17.8008Z" fill="black"/>
</svg>
