<svg width="37" height="23" viewBox="0 0 37 23" fill="none" xmlns="http://www.w3.org/2000/svg">
<path opacity="0.09" d="M4.10846 21.2987C4.10846 11.222 10.7892 3.05322 19.0301 3.05322C27.2711 3.05322 33.9458 11.222 33.9458 21.2987" fill="#2A94F4"/>
<path d="M22.8675 4.3423C22.6446 4.86528 22.4097 5.3588 22.1386 5.84495C22 6.08803 21.8554 6.32374 21.6747 6.55208C21.6265 6.61101 21.5783 6.66994 21.5181 6.7215C21.4579 6.77306 21.3916 6.83936 21.2711 6.87619C21.2591 6.88355 21.241 6.88355 21.2229 6.88355C21.2048 6.88355 21.1868 6.89092 21.1687 6.89092C21.1265 6.88355 21.0844 6.88355 21.0422 6.86145C21 6.83935 20.9639 6.80989 20.9338 6.78043C20.9036 6.75097 20.8856 6.71413 20.8675 6.68467C20.8012 6.55945 20.7952 6.46369 20.7832 6.36794C20.7651 6.19115 20.7651 6.03647 20.7771 5.88178C20.7832 5.7271 20.8012 5.57978 20.8133 5.43983C20.8494 5.15256 20.8916 4.86528 20.9458 4.58538C21.0482 4.02557 21.1687 3.46575 21.3012 2.92068C21.3133 2.86175 21.3615 2.83228 21.4097 2.84702C21.4518 2.86175 21.4759 2.91331 21.4699 2.96487C21.4398 3.24478 21.3976 3.52468 21.3675 3.81195C21.3374 4.09186 21.3012 4.37177 21.2771 4.65167C21.253 4.93158 21.2289 5.21148 21.2169 5.49139C21.2109 5.63134 21.2048 5.76393 21.2109 5.89652C21.2109 6.0291 21.2229 6.16169 21.241 6.26481C21.247 6.31638 21.2651 6.36057 21.2711 6.3532C21.2711 6.34584 21.2651 6.34584 21.2591 6.33111C21.253 6.31637 21.241 6.31638 21.2229 6.30164C21.2048 6.29428 21.1928 6.28691 21.1807 6.28691C21.1747 6.28691 21.1747 6.28691 21.1687 6.28691C21.1627 6.28691 21.1627 6.28691 21.1627 6.28691C21.1506 6.28691 21.1868 6.26481 21.2169 6.23535C21.247 6.20588 21.2832 6.16169 21.3133 6.11013C21.4458 5.91861 21.5663 5.69027 21.6868 5.45456C21.8073 5.21885 21.9217 4.97577 22.0301 4.7327C22.1386 4.48962 22.247 4.23918 22.3554 3.9961V3.98874C22.4338 3.81195 22.6145 3.7383 22.7591 3.83405C22.8916 3.93718 22.9458 4.15815 22.8675 4.3423Z" fill="#EFB68F"/>
<path d="M21.7108 1.63155C21.7108 1.63155 21.7831 3.65718 22.3795 3.45093C22.9759 3.24469 23.0723 2.64068 23.0723 2.64068L22.9879 1.76414C22.9879 1.76414 22.1686 1.28535 21.7108 1.63155Z" fill="#EFB68F"/>
<path d="M18.5 22.9999C28.7173 22.9999 37 22.0963 37 20.9816C37 19.867 28.7173 18.9634 18.5 18.9634C8.28273 18.9634 0 19.867 0 20.9816C0 22.0963 8.28273 22.9999 18.5 22.9999Z" fill="#F7F7F7"/>
<path d="M21.8434 5.0934C21.8614 4.90188 22 4.66617 22.1687 4.39363C22.1807 4.29788 22.2711 4.12109 22.2891 4.099C22.3735 4.00324 22.4638 3.88538 22.6144 3.76753C22.6325 3.29611 22.2108 2.7584 22.006 2.45639C22.006 2.45639 23.1205 1.24101 23.0964 1.94078C23.0783 2.4343 23.1144 2.7805 23.6144 3.49499C24.0361 3.90748 24.3373 3.85592 24.2891 4.37154C24.1687 5.15233 23.4638 6.89805 23.6084 8.77637C23.3855 8.89422 22.2771 7.85563 22.1928 7.53152C22.1928 7.53152 22.0783 6.63288 22.1024 5.63848C21.9096 5.63848 21.8313 5.20389 21.8434 5.0934Z" fill="#EFB68F"/>
<path d="M24.2891 10.6252C24.2349 9.0047 23.9638 8.62167 23.6928 7.8998C23.5542 7.53151 24.0723 5.07865 24.0723 5.07865C24.0723 5.07865 23.1265 4.9608 22.1927 5.11548L21.8253 4.81348C21.6446 5.15231 21.4397 5.80051 21.6988 6.12461C21.6988 6.12461 21.9217 6.48555 21.8012 7.43575C21.8012 7.43575 21.6265 8.47435 21.5723 9.21094C21.5181 10.802 21.6687 12.8865 21.8072 16.2675C21.8675 18.9929 21.3735 21.5489 21.3735 21.5489C21.3735 21.5489 21.7349 21.5268 22.747 21.7257C22.9217 21.7625 23.1927 21.4826 23.3976 21.5489C23.494 21.5784 23.6144 21.7036 23.7168 21.7404C23.9458 21.8214 24.1566 21.792 24.5662 21.7772C24.6687 21.7699 24.9638 21.6225 25.0723 21.6152C25.1385 21.6078 25.4036 21.733 25.4699 21.7257C26.3614 21.6373 27.0361 21.4973 27.0361 21.4973C27.0361 21.4973 24.3012 11.0672 24.2891 10.6252Z" fill="#FD7D7C"/>
<path d="M22.1626 1.85255L21.7229 1.63893C21.6506 1.48425 21.9458 0.70346 22.6265 0.725558C23.259 0.747655 23.4156 1.12332 23.512 1.56527C23.6084 2.00723 23.265 2.40499 23.265 2.40499C23.265 2.40499 22.8072 2.43446 22.8795 2.2724C22.9217 2.16928 22.8614 1.81572 22.7349 1.82308C22.6747 1.83045 22.6265 1.94094 22.6265 1.94094L22.1626 1.85255Z" fill="#0E538C"/>
<path d="M23.1084 2.63318C23.4819 2.58898 23.8734 1.49882 23.6024 1.24101C23.9939 0.791692 23.5421 0.121393 23.2409 0.224516C23.1807 -0.0185602 22.9277 -0.114319 22.765 0.19505C22.5783 -0.018562 22.3072 0.57808 22.4939 0.769595C22.3674 0.799059 22.4277 1.09369 22.6204 1.22628C22.8072 1.35887 23.1084 2.63318 23.1084 2.63318Z" fill="#0E538C"/>
<path d="M23.9036 3.67894C23.8072 3.64211 23.5963 3.73787 23.4156 4.23875C23.2891 4.59232 22.9457 5.47623 22.9457 5.47623L23.1445 5.40257C23.1445 5.40257 23.4939 4.43026 23.6747 4.06197C23.8494 3.7084 23.9036 3.67894 23.9036 3.67894Z" fill="#FD7D7C"/>
<path d="M22.5783 3.76025C22.4578 3.79708 21.9217 4.56314 21.8253 4.80622C21.7289 5.04929 21.9217 4.90197 21.9217 4.90197L22.5783 3.76025Z" fill="#FD7D7C"/>
<path d="M14.4819 14.8605C14.4819 14.8605 18.1868 14.1165 18.3253 15.0594C18.4639 16.0096 18 20.3702 18 20.3702H17.1566C17.1566 20.3702 17.5121 17.3575 17.2831 16.9303C17.0542 16.4957 16.0723 18.0941 14.6386 17.8731C13.2048 17.6448 13.7892 14.5806 13.7892 14.5806L14.4819 14.8605Z" fill="#0B4870"/>
<path d="M20.3072 15.8475C20.2048 15.7591 20.1144 15.656 20.0662 15.6265C20.0482 15.6118 19.994 15.597 19.9759 15.5897C19.9277 15.5749 19.8554 15.5529 19.8193 15.5087L19.6807 15.3245C19.6144 15.2361 19.5301 15.1993 19.4518 15.2803C19.3674 15.3687 19.3976 15.4939 19.4759 15.5823L19.5723 15.7149C19.6385 15.7886 19.6687 15.8843 19.7048 15.9801C19.7771 16.179 19.9397 16.3263 20.0843 16.4294C20.1747 16.4957 20.3072 16.4515 20.4819 16.3778C20.5662 16.341 20.6928 16.2526 20.5843 16.2084C20.494 16.1642 20.2229 16.26 20.1024 15.9506C20.0964 15.9359 20.0843 15.8991 20.0964 15.8843C20.1325 15.8401 20.2108 15.9359 20.265 15.9653C20.3434 16.0095 20.4036 15.9948 20.4217 15.958C20.4458 15.9211 20.3795 15.9064 20.3072 15.8475Z" fill="#FFE3CA"/>
<path d="M16.4819 9.12988C16.4819 9.12988 16.7048 12.4225 17.5121 13.5347C18 14.205 19.1868 15.3541 19.4578 15.6193C19.494 15.6561 19.5422 15.6561 19.5783 15.6266C19.6024 15.6045 19.6265 15.5824 19.6506 15.5603C19.6747 15.5382 19.6988 15.5014 19.7229 15.4646C19.7651 15.4057 19.759 15.3246 19.7169 15.2657C19.4096 14.8532 18.1988 13.2327 18.0542 12.8055C17.8855 12.312 17.5964 9.42452 17.3313 9.00466C17.0663 8.5848 16.5542 8.48904 16.4819 9.12988Z" fill="#0B4870"/>
<path d="M17.5 14.5733L16.8132 8.66581L14.9578 8.35645L13.994 14.5291L17.5 14.5733Z" fill="#FFE3CA"/>
<path d="M17.5723 14.4186L16.8132 8.66581L14.9578 8.35645L13.9638 14.4333C13.9458 14.5438 14.006 14.6617 14.0964 14.6764C14.4397 14.7574 15.2711 14.9269 16.2048 14.9269C16.8976 14.9269 17.2891 14.7648 17.4699 14.6543C17.5422 14.6101 17.5843 14.5144 17.5723 14.4186Z" fill="white"/>
<path d="M15.5361 8.71766C15.5361 9.13015 15.4759 9.54264 15.3614 9.93304C15.1325 10.6917 14.7952 12.1354 15 13.4024C15.2891 15.2291 15.6626 15.9657 15.1807 16.393C14.6988 16.8202 13.765 16.1057 13.7409 15.87C13.7168 15.6343 13.9217 12.7247 14.1566 11.4651C14.3915 10.2056 15.0482 8.39355 15.0482 8.39355L15.3253 8.43038C15.4458 8.44512 15.5361 8.57034 15.5361 8.71766Z" fill="#0B4870"/>
<path d="M16.3072 8.58496C16.3072 8.58496 16.6265 9.43204 16.518 10.6548C16.4036 11.8775 16.1445 15.59 17.0542 16.1498C17.3433 16.3266 18 15.5384 18 15.2511C18 14.9565 17.7831 13.9842 17.5723 13.0929C17.3674 12.2016 16.8614 8.68072 16.8614 8.68072L16.3072 8.58496Z" fill="#0B4870"/>
<path d="M16.0482 5.95508C15.6325 5.95508 15.4819 6.31601 15.4698 6.97894C15.4698 7.22939 15.5602 7.47246 15.6325 7.63451C15.6867 7.75237 15.7048 7.89232 15.6686 8.01754L15.5783 8.3932C15.518 8.7394 15.6506 8.93092 15.8494 9.00458C15.9458 9.04141 16.0662 9.01194 16.1506 8.94565C16.253 8.86462 16.259 8.68784 16.2409 8.54052L16.2168 8.43003C16.1867 8.28272 16.253 8.12803 16.3735 8.09857C16.6927 8.01018 16.7349 7.60505 16.8253 6.97894C16.9277 6.32337 16.4638 5.95508 16.0482 5.95508Z" fill="#FFE3CA"/>
<path d="M17.012 5.66062L16.7771 5.74901C16.6927 5.77847 16.5963 5.77847 16.512 5.74901L16.0361 5.57959C15.7469 5.57959 15.2771 5.77847 15.3373 6.28672L15.3915 6.64765C15.4156 6.7876 15.512 6.89809 15.6265 6.91283C15.6385 6.96439 15.6747 6.99385 15.7168 6.99385C15.771 6.99385 15.8072 6.94229 15.8072 6.88336C15.8072 6.72131 15.8975 6.58136 16.0301 6.55189C16.1867 6.5077 16.3554 6.50033 16.5361 6.55926C16.8674 6.66975 17.2108 6.41931 17.2469 6.00682C17.2469 5.97735 17.253 5.95525 17.253 5.92579C17.2469 5.74164 17.1325 5.62379 17.012 5.66062Z" fill="#0B4870"/>
<path d="M15.7048 6.99377C15.7048 7.14846 15.6566 7.27368 15.5361 7.27368C15.4156 7.27368 15.3373 7.06007 15.3373 6.90538C15.3373 6.7507 15.4156 6.71387 15.5361 6.71387C15.6566 6.71387 15.7048 6.83909 15.7048 6.99377Z" fill="#FFE3CA"/>
<path d="M15.6506 7.67139C15.6506 7.67139 15.9578 8.19437 16.3433 8.12071C16.3433 8.12071 16.265 8.16491 16.247 8.24593C16.247 8.23857 15.8795 8.2091 15.6506 7.67139Z" fill="#E8948B"/>
<path d="M17.7048 9.7927C17.5783 9.91792 17.4458 10.0284 17.3976 10.0873C17.3795 10.1094 17.3434 10.1905 17.3313 10.2126C17.2952 10.2789 17.253 10.3893 17.1988 10.4262L16.9578 10.5809C16.8434 10.6545 16.7831 10.7797 16.8373 10.9197C16.9036 11.0744 17.0361 11.0817 17.1566 10.986L17.3253 10.8829C17.4217 10.8092 17.5361 10.7871 17.6446 10.765C17.8735 10.7208 18.0783 10.5146 18.2349 10.3304C18.3313 10.2126 18.3253 9.99158 18.3133 9.69694C18.3072 9.54963 18.253 9.32865 18.1687 9.48333C18.0964 9.60856 18.0964 10.0579 17.741 10.1389C17.7229 10.1463 17.6807 10.1463 17.6687 10.1242C17.6386 10.0505 17.759 9.96212 17.8072 9.88846C17.8735 9.78534 17.8795 9.68958 17.8494 9.64538C17.8313 9.60855 17.7952 9.69694 17.7048 9.7927Z" fill="#FFE3CA"/>
<path d="M15.1506 17.8735C15.1506 17.8735 15.4337 20.5032 14.753 20.4811C14.0783 20.459 10.2771 20.3706 10.2771 20.3706L10.6626 19.5235C10.6626 19.5235 13.0181 19.494 13.4638 19.1773C13.9096 18.8605 13.7289 16.5845 13.7289 16.5845L15.1506 17.8735Z" fill="#0B4870"/>
<path d="M15.0482 8.39355C15.0482 8.39355 14.3855 9.30693 14.0422 10.073C13.7048 10.8317 12.7952 13.6528 14.3253 13.5792C15.8554 13.5055 17.1506 12.4227 17.1506 12.4227L16.9036 11.8482C16.9036 11.8482 15.3795 12.629 14.7108 12.5627C14.0422 12.4964 15.0482 8.39355 15.0482 8.39355Z" fill="#0B4870"/>
<path d="M17.8253 9.36558C17.8434 9.42451 17.8313 9.48343 17.7952 9.49817L17.4819 9.63076C17.4518 9.64549 17.4096 9.60866 17.3915 9.54973L17.1928 8.84996C17.1747 8.79104 17.1867 8.73211 17.2229 8.71738L17.5361 8.58479C17.5662 8.57006 17.6084 8.60689 17.6265 8.66582L17.8253 9.36558Z" fill="#FD7D7C"/>
<path d="M18.4277 10.0434C18.4277 10.095 18.3976 10.1392 18.3674 10.1392H17.6084C17.5723 10.1392 17.5482 10.095 17.5482 10.0434V9.63092C17.5482 9.57936 17.5783 9.53516 17.6084 9.53516H18.3674C18.4036 9.53516 18.4277 9.57936 18.4277 9.63092V10.0434Z" fill="#FD7D7C"/>
<path d="M17.8856 20.3706C17.8856 20.3706 17.7651 20.7757 18.0904 20.8052C18.4217 20.8347 19.3976 21.0409 18.8675 21.2545C18.3374 21.4681 17.6807 21.3945 17.4217 21.3503C17.1627 21.3061 17.247 20.3706 17.247 20.3706H17.8856Z" fill="#0B4870"/>
<path d="M10.5904 19.6928C10.5904 19.6928 10.247 19.4792 10.0542 19.575C9.86145 19.6707 9.3253 20.9303 9.56024 20.9819C9.79518 21.0334 10.1446 20.1716 10.3735 20.1569C10.6024 20.1422 10.5904 19.6928 10.5904 19.6928Z" fill="#0B4870"/>
<path d="M22.5783 3.34756C22.5783 3.34756 22.8434 3.17078 22.9699 2.84668C22.9699 2.84668 22.7169 3.51698 22.6024 3.56854L22.5181 3.39176L22.5783 3.34756Z" fill="#E2A881"/>
<path d="M24.1867 4.17277C24.0783 4.79888 23.9337 5.38815 23.7349 5.98479C23.6325 6.27943 23.512 6.57407 23.3313 6.86134C23.2831 6.935 23.2289 7.0013 23.1627 7.06759C23.0964 7.13388 23.012 7.20018 22.9096 7.237C22.8072 7.27383 22.6807 7.27383 22.5783 7.22964C22.4759 7.18544 22.3976 7.11915 22.3374 7.04549C22.2169 6.90554 22.1386 6.75085 22.0723 6.60353C22.006 6.45621 21.9518 6.3089 21.9096 6.15421C21.8133 5.85221 21.747 5.55757 21.6867 5.25557C21.5663 4.65156 21.4819 4.04755 21.4096 3.43618C21.4036 3.37725 21.4337 3.32569 21.4819 3.31833C21.5241 3.31096 21.5663 3.34779 21.5783 3.39199C21.7108 3.98126 21.8494 4.56317 22.012 5.13035C22.0964 5.41025 22.1867 5.69016 22.2831 5.95533C22.3313 6.08792 22.3916 6.21314 22.4518 6.331C22.512 6.44148 22.5783 6.55197 22.6446 6.6109C22.6747 6.64036 22.7048 6.66246 22.7229 6.66246C22.741 6.66246 22.747 6.66246 22.759 6.6551C22.7771 6.64773 22.8012 6.62563 22.8313 6.59617C22.8614 6.55934 22.8916 6.51514 22.9217 6.47095C23.0361 6.2647 23.1325 5.99953 23.2169 5.72699C23.3012 5.45445 23.3675 5.17454 23.4337 4.88727C23.5 4.6 23.5542 4.30536 23.6024 4.02545V4.01809C23.6386 3.81921 23.7952 3.69399 23.9578 3.73818C24.1205 3.77501 24.2229 3.97389 24.1867 4.17277Z" fill="#EFB68F"/>
<path d="M21.6145 3.67196C21.6145 3.67196 21.6145 3.6646 21.6145 3.65723C21.6145 3.57621 21.6024 3.19318 21.6747 3.06796C21.759 2.928 21.8133 2.6923 21.6566 2.72176C21.506 2.75122 21.3012 2.9722 21.3253 3.26684C21.3434 3.56148 21.5602 3.95924 21.5602 3.95924L21.6145 3.67196Z" fill="#EFB68F"/>
<path d="M21.3976 3.43613C21.3976 3.43613 21.3976 3.42876 21.3976 3.42139C21.3976 3.34037 21.3856 2.95734 21.4578 2.83212C21.5422 2.69217 21.5964 2.45646 21.4398 2.48592C21.2892 2.51538 21.0844 2.73636 21.1085 3.031C21.1265 3.32564 21.3434 3.7234 21.3434 3.7234L21.3976 3.43613Z" fill="#EFB68F"/>
<path d="M16 9.25506C16 9.25506 15.6024 8.82783 15.506 8.99725C15.4157 9.16667 15.3675 9.88116 15.3675 9.88116L16 9.25506Z" fill="#FD7D7C"/>
<path d="M15.9699 9.28445C15.9699 9.28445 16.3916 9.75587 16.5061 9.63065C16.6265 9.49806 16.4157 8.80566 16.4157 8.80566L16 9.26972L15.9699 9.28445Z" fill="#FD7D7C"/>
<path d="M15.9277 10.2202C15.9543 10.2202 15.9759 10.1839 15.9759 10.1391C15.9759 10.0944 15.9543 10.0581 15.9277 10.0581C15.9011 10.0581 15.8795 10.0944 15.8795 10.1391C15.8795 10.1839 15.9011 10.2202 15.9277 10.2202Z" fill="#0B4870"/>
<path d="M15.9097 10.9786C15.9429 10.9786 15.9699 10.9358 15.9699 10.8829C15.9699 10.83 15.9429 10.7871 15.9097 10.7871C15.8764 10.7871 15.8494 10.83 15.8494 10.8829C15.8494 10.9358 15.8764 10.9786 15.9097 10.9786Z" fill="#0B4870"/>
<path d="M15.9097 11.9143C15.9429 11.9143 15.9699 11.8681 15.9699 11.8111C15.9699 11.7542 15.9429 11.708 15.9097 11.708C15.8764 11.708 15.8494 11.7542 15.8494 11.8111C15.8494 11.8681 15.8764 11.9143 15.9097 11.9143Z" fill="#0B4870"/>
<path d="M10.4217 8.78362C10.4217 8.78362 9.62047 8.36376 9.6265 7.95127C9.63855 7.53878 9.9518 7.30307 10.2289 7.52405C10.4879 7.12628 10.9217 7.20731 10.9337 7.62717C10.9458 8.05439 10.4217 8.78362 10.4217 8.78362Z" fill="#FD7D7C"/>
<path opacity="0.55" d="M10.4217 15.6415C10.4217 15.6415 9.62047 15.2217 9.6265 14.8092C9.63252 14.3967 9.9518 14.161 10.2289 14.382C10.4879 13.9842 10.9217 14.0652 10.9337 14.4851C10.9458 14.9123 10.4217 15.6415 10.4217 15.6415Z" fill="#2A94F4"/>
<path opacity="0.55" d="M12.5602 5.57192C12.5602 5.57192 11.9036 5.23308 11.9096 4.89425C11.9157 4.55542 12.1747 4.3639 12.4036 4.54805C12.6205 4.22395 12.9699 4.29024 12.9819 4.62908C12.988 4.97528 12.5602 5.57192 12.5602 5.57192Z" fill="#2A94F4"/>
<path d="M27.6024 15.5456C27.6024 15.5456 26.9458 15.2067 26.9518 14.8679C26.9578 14.529 27.2169 14.3375 27.4458 14.5217C27.6627 14.1976 28.0121 14.2639 28.0241 14.6027C28.0362 14.9489 27.6024 15.5456 27.6024 15.5456Z" fill="#FD7D7C"/>
<path opacity="0.55" d="M27.0964 9.1889C27.0964 9.1889 26.2952 8.76904 26.3012 8.35654C26.3132 7.94405 26.6265 7.70834 26.9036 7.92932C27.1626 7.53156 27.5964 7.61259 27.6084 8.03244C27.6205 8.45967 27.0964 9.1889 27.0964 9.1889Z" fill="#2A94F4"/>
<path d="M27.7229 5.82289C27.7229 5.82289 27.0663 5.48406 27.0723 5.14523C27.0783 4.80639 27.3374 4.61488 27.5663 4.79903C27.7832 4.47493 28.1325 4.54122 28.1446 4.88005C28.1566 5.22625 27.7229 5.82289 27.7229 5.82289Z" fill="#FD7D7C"/>
<path opacity="0.55" d="M33.0964 21.4014C33.0964 21.4014 35.006 16.4809 36.9097 16.0242C36.9097 16.0242 36.3554 15.2508 34.6928 15.5455C33.0301 15.8401 31.3735 20.5322 33.0964 21.4014Z" fill="#2A94F4"/>
<path opacity="0.55" d="M33.0663 21.4014C33.0663 21.4014 33.5241 15.98 35.1988 14.7794C35.1988 14.7794 34.4639 14.2785 32.9819 15.2287C31.494 16.1789 31.2048 21.2835 33.0663 21.4014Z" fill="#2A94F4"/>
<path opacity="0.55" d="M5.01204 21.4014C5.01204 21.4014 3.10241 16.4809 1.19879 16.0242C1.19879 16.0242 1.75301 15.2508 3.41566 15.5455C5.07831 15.8401 6.73494 20.5322 5.01204 21.4014Z" fill="#2A94F4"/>
<path opacity="0.55" d="M5.0422 21.4014C5.0422 21.4014 4.58437 15.98 2.90967 14.7794C2.90967 14.7794 3.64461 14.2785 5.12653 15.2287C6.61449 16.1789 6.90364 21.2835 5.0422 21.4014Z" fill="#2A94F4"/>
</svg>
