<svg width="19" height="4" viewBox="0 0 19 4" fill="none" xmlns="http://www.w3.org/2000/svg">
<path d="M2.60352 3.79492C1.57812 3.79492 0.748047 2.97461 0.748047 1.94922C0.748047 0.923828 1.57812 0.09375 2.60352 0.09375C3.62891 0.09375 4.44922 0.923828 4.44922 1.94922C4.44922 2.97461 3.62891 3.79492 2.60352 3.79492ZM9.85938 3.79492C8.83398 3.79492 8.00391 2.97461 8.00391 1.94922C8.00391 0.923828 8.83398 0.09375 9.85938 0.09375C10.8848 0.09375 11.7051 0.923828 11.7051 1.94922C11.7051 2.97461 10.8848 3.79492 9.85938 3.79492ZM17.1152 3.79492C16.0898 3.79492 15.2598 2.97461 15.2598 1.94922C15.2598 0.923828 16.0898 0.09375 17.1152 0.09375C18.1406 0.09375 18.9707 0.923828 18.9707 1.94922C18.9707 2.97461 18.1406 3.79492 17.1152 3.79492Z" fill="black"/>
</svg>
