<svg width="31" height="28" viewBox="0 0 31 28" fill="none" xmlns="http://www.w3.org/2000/svg">
<path opacity="0.13" d="M15.2833 27.9605C5.20445 23.6115 -0.807507 15.9094 0.0878308 9.15761C0.463929 6.32924 2.38652 1.10937 6.93898 0.150507C10.2369 -0.544529 13.9193 1.20866 16.3358 4.56186C18.9096 1.41576 22.6256 0.00582627 25.6513 1.00725C30.1616 2.49945 30.8829 8.59874 30.9475 9.21718C31.6436 15.9661 25.365 23.3562 15.2833 27.9605Z" fill="#2A94F4"/>
<path d="M24.523 9.29921C24.523 9.29921 14.2505 5.68786 9.65308 13.8609L11.8872 15.1205L25.466 12.1049C25.466 12.1021 25.4015 10.1843 24.523 9.29921Z" fill="#0E538C"/>
<path d="M15.5303 1.24814C15.2441 1.07509 12.5075 0.357364 11.3568 4.08503C10.206 7.81269 11.4213 10.0198 13.2204 10.3744C15.0195 10.729 14.5733 12.729 12.7068 13.5148C10.8403 14.3006 10.8684 18.5276 15.6903 18.4482C29.7519 18.2127 21.1297 4.62403 15.5303 1.24814Z" fill="#0B4870"/>
<path d="M16.4678 9.74756C16.4678 9.74756 11.1996 12.0568 10.4642 21.1632L12.3531 22.5107C12.3531 22.5107 13.9923 15.7561 15.3423 14.6894C16.6951 13.6199 17.6803 10.2667 16.4678 9.74756Z" fill="#2A94F4"/>
<path d="M15.1627 16.7826C14.7641 15.8379 14.6406 14.7996 14.7922 13.7869C15.1122 11.6166 16.1057 8.15848 18.9321 8.53295C22.8699 9.0521 24.2059 12.6067 24.5848 17.1202C25.0114 22.1784 19.9144 25.8493 15.3114 23.8152C16.4566 20.794 15.7465 18.1698 15.1627 16.7826Z" fill="#2A94F4"/>
<path d="M15.8756 8.49365C15.7858 6.51067 18.4409 5.79577 19.3755 7.54045C19.8863 8.49365 20.2063 9.44684 20.2344 10.0965C20.2568 10.5816 19.9453 11.2653 19.2548 11.566C18.2585 12 17.1105 11.4752 16.7569 10.4397C16.5969 9.96599 16.3864 9.50641 16.1226 9.22273C15.9738 9.05535 15.8896 8.79436 15.8756 8.49365Z" fill="#FCD2B1"/>
<path d="M18.598 4.88186C19.7123 6.94994 20.0042 8.76838 18.2865 9.7159C16.5688 10.6634 14.2533 9.75562 13.139 7.68753C12.0247 5.61944 11.7497 3.801 13.4702 2.85348C15.1907 1.90597 17.4866 2.8166 18.598 4.88186Z" fill="#FFE3CA"/>
<path d="M11.6571 14.2754C11.6571 14.2754 14.9241 16.1222 14.113 17.7903C13.3018 19.4555 8.18801 15.6371 11.6571 14.2754Z" fill="#FCD2B1"/>
<path d="M11.716 14.0877C11.615 14.655 11.3287 16.6664 14.2112 16.9245C17.481 17.2167 19.3811 19.0863 20.0267 20.2494C20.6469 21.3614 21.4665 23.5487 19.339 23.9884C17.756 24.3175 15.3254 24.1047 13.8491 23.3019C11.4185 21.9827 9.53241 21.4153 8.33675 19.1628C7.04006 16.7203 7.186 14.6891 8.80266 13.9572C10.4193 13.2253 11.8227 13.4919 11.716 14.0877Z" fill="#FD7D7C"/>
<path d="M10.0264 21.1631C10.0264 21.1631 12.0191 23.3475 13.473 23.8553C14.9269 24.3631 15.825 24.4425 15.825 24.4425C15.825 24.4425 17.1498 24.3376 17.6213 24.1361C18.1012 23.9319 18.3538 23.6454 18.4858 23.39C18.6093 23.1517 18.4044 22.8794 18.1462 22.939C17.7139 23.0383 17.0459 23.1347 16.3807 23.0071C16.1955 22.973 15.8643 22.9134 16.9224 22.2326C17.4473 21.895 17.1806 21.7333 16.9617 21.7475C16.8831 21.7532 16.4397 21.8468 16.3807 21.8978C15.8699 22.3574 15.9457 22.1021 15.4152 22.3773C15.0868 22.5503 14.8034 23.0241 14.301 23.0241C13.7986 23.0269 12.3531 22.8028 10.0264 21.1631Z" fill="#FCD2B1"/>
<path d="M22.1008 12.2578C22.1008 12.2578 22.1597 18.8053 19.6505 19.6876C17.1414 20.5699 13.226 18.9642 10.8459 17.2819C10.8459 17.2819 11.048 16.4451 10.6691 15.8833C10.2874 15.316 10.5456 14.8138 10.5456 14.8138C10.5456 14.8138 10.0516 14.3855 10.0264 15.1344C10.0011 15.8833 9.71764 15.9458 9.54362 15.9458C9.3668 15.9458 8.80265 15.6337 8.76897 15.1004C8.74652 14.7599 8.78862 14.5188 8.8223 14.3883C8.83633 14.3401 8.78581 14.2975 8.7381 14.3174C8.60338 14.377 8.38445 14.5216 8.23851 14.8507C7.99994 15.3926 7.95784 15.5628 7.92135 15.8294C7.88486 16.0961 8.55005 17.3529 9.73728 17.7869C9.93095 17.8578 13.3186 23.3273 20.1501 21.9174C22.6958 21.3926 24.6437 18.0536 24.5202 14.0989L22.1008 12.2578Z" fill="#FFE3CA"/>
<path d="M21.43 10.8003C21.1353 10.1365 21.9015 9.50668 22.4769 9.94356C23.3358 10.596 24.2086 11.5975 24.7138 13.1265C25.9432 16.8287 22.5302 20.4372 22.5302 20.4372L20.7087 18.8287C20.7115 18.8258 23.041 14.44 21.43 10.8003Z" fill="#2A94F4"/>
<path d="M11.8339 5.44666C11.8339 5.44666 15.7184 3.86935 17.248 7.33035C18.5475 10.2779 20.0968 9.51475 19.7291 11.0155C19.3615 12.5133 20.0631 18.7318 22.8502 20.0679C22.8502 20.0679 25.9965 21.2878 26.9788 18.0282C29.1204 10.9218 21.5282 9.91191 22.1654 8.07928C23.3245 4.73176 20.5711 -1.83846 14.6069 1.56296C11.7946 3.16297 11.8339 5.44666 11.8339 5.44666Z" fill="#0B4870"/>
<path d="M24.523 9.29944C24.6409 9.09519 30.3778 21.1406 14.3655 24.1392L14.6911 28.0002C14.6911 28.0002 25.4688 26.5647 27.3746 19.1519C29.1765 12.125 24.523 9.29944 24.523 9.29944Z" fill="#0E538C"/>
<path d="M14.3655 24.1361C14.3655 24.1361 9.59694 21.6198 8.33673 19.1631C8.33673 19.1631 8.8672 24.6638 14.6911 27.9971L14.3655 24.1361Z" fill="#0B4870"/>
</svg>
