<svg width="45" height="45" viewBox="0 0 45 45" fill="none" xmlns="http://www.w3.org/2000/svg">
<circle cx="22.5" cy="22.5" r="22.5" fill="#59C3FF"/>
<path d="M30 33.5C30 31.7761 29.1571 30.1228 27.6569 28.9038C26.1566 27.6848 24.1217 27 22 27C19.8783 27 17.8434 27.6848 16.3431 28.9038C14.8429 30.1228 14 31.7761 14 33.5L16.8 33.5C16.8 32.3795 17.3479 31.3048 18.323 30.5125C19.2982 29.7201 20.6209 29.275 22 29.275C23.3791 29.275 24.7018 29.7201 25.677 30.5125C26.6521 31.3048 27.2 32.3795 27.2 33.5H30Z" fill="#0B0B0B"/>
<circle cx="12.5" cy="16.5" r="3.5" fill="black"/>
<circle cx="32.5" cy="16.5" r="3.5" fill="black"/>
</svg>
