<svg width="18" height="18" viewBox="0 0 18 18" fill="none" xmlns="http://www.w3.org/2000/svg">
<path d="M6.85742 17.5723C6.4375 17.5723 6.13477 17.3867 5.8418 17.0059L0.773438 10.5508C0.587891 10.3164 0.490234 10.0625 0.490234 9.83789C0.490234 9.30078 0.871094 8.91992 1.42773 8.91992C1.7793 8.91992 2.02344 9.05664 2.26758 9.39844L6.81836 15.3555L15.5879 1.38086C15.8223 1.00977 16.0371 0.882812 16.4277 0.882812C16.9648 0.882812 17.3164 1.23438 17.3164 1.77148C17.3164 1.99609 17.248 2.21094 17.0723 2.49414L7.84375 17.0254C7.60938 17.3867 7.27734 17.5723 6.85742 17.5723Z" fill="black"/>
</svg>
