<svg width="39" height="26" viewBox="0 0 39 26" fill="none" xmlns="http://www.w3.org/2000/svg">
<path opacity="0.23" d="M3.34486 23.229C2.38346 22.1537 0.490244 19.8355 0.0834989 16.3722C-0.404596 12.2245 1.25197 6.7642 4.92747 5.38166C8.52162 4.02705 10.5701 7.86046 15.2218 6.90385C19.8587 5.95423 19.9475 1.70885 24.9098 0.361218C28.4891 -0.609354 32.5048 0.493886 34.8639 2.26745C39.8188 5.97517 40.7876 15.0315 35.1967 23.229H3.34486Z" fill="#D9D9D9"/>
<path fill-rule="evenodd" clip-rule="evenodd" d="M9.6995 18.9456C9.97487 18.7664 9.67035 14.3464 9.50625 14.3949C9.1373 14.4979 7.29711 14.5664 7.00774 14.8726C6.8458 15.0489 6.85263 15.4244 6.84227 15.6474C6.80934 16.3564 6.75241 18.4532 7.23022 18.7941C7.50473 18.9821 9.41568 19.1323 9.6995 18.9456Z" fill="#2A94F4"/>
<path fill-rule="evenodd" clip-rule="evenodd" d="M7.46888 14.9149C7.13341 14.9835 7.13617 15.5067 7.14638 15.854C7.15234 16.3535 7.17433 16.8551 7.23958 17.3383C7.29521 17.772 7.11798 18.4807 7.57526 18.4765C7.8039 18.4743 7.85673 18.1434 7.84225 17.8278L7.78607 17.3377C7.78928 17.314 7.79141 17.2982 7.7866 17.2734C7.82121 16.5942 7.70837 15.9197 7.65697 15.2131C7.64412 15.0666 7.63504 15.0735 7.61046 15.0139C7.59389 14.9555 7.55114 14.9096 7.46888 14.9149Z" fill="#004970"/>
<path fill-rule="evenodd" clip-rule="evenodd" d="M8.81387 16.0189C8.75661 15.752 9.02045 15.5221 9.14497 15.3364C9.48091 14.8462 11.0791 12.9496 11.2555 13.0411C11.6709 13.2528 10.8405 14.4096 10.4581 15.0631C10.1025 15.6653 9.87771 16.3298 9.35069 16.3692C9.205 16.3832 8.87751 16.316 8.81387 16.0189Z" fill="#F7C0B5"/>
<path fill-rule="evenodd" clip-rule="evenodd" d="M9.31855 15.0571L9.76228 14.4287L10.6053 15.0013L9.98414 16.1394C9.98414 16.1394 9.2446 15.4063 9.31855 15.0571Z" fill="#E8E7E7"/>
<path d="M9.02918 18.6642L8.18516 17.3734C8.00419 16.6007 7.87827 16.3599 8.16551 15.6907C8.23843 15.5207 8.47194 15.414 8.5701 15.2224C8.77532 14.8178 9.06951 14.879 9.30139 14.984C9.82725 15.2232 9.91957 15.3728 9.97614 15.6815L10.243 17.9296C10.2927 18.381 9.37527 18.9264 9.02918 18.6642Z" fill="#F7C0B5"/>
<path d="M10.0752 16.6456C10.0752 16.6456 10.5318 17.8925 10.0753 19.3197L8.60931 19.2749C7.75775 18.8609 7.77565 18.0871 8.38367 16.9541C9.03121 16.1147 10.0752 16.6456 10.0752 16.6456Z" fill="#F7C0B5"/>
<path d="M9.04849 15.682C8.85286 15.7291 8.66452 15.6133 8.62503 15.4259L8.49343 14.7848C8.45394 14.5975 8.58267 14.4095 8.7783 14.3624C8.97393 14.3153 9.16227 14.4311 9.20176 14.6184L9.33336 15.2596C9.37285 15.4469 9.24412 15.6349 9.04849 15.682Z" fill="#FACBB6"/>
<path d="M8.94686 21.5729C8.8041 21.2089 8.93082 20.7567 8.94245 20.6167C8.94245 20.6167 8.9817 20.2579 8.88661 19.4705C8.79809 18.7672 9.14388 17.3262 9.81625 17.959C10.2898 18.4016 10.2248 19.7411 10.0474 20.9112C9.93884 21.6216 9.90424 22.8414 9.7982 22.8352C9.25449 22.7948 8.94686 21.5729 8.94686 21.5729Z" fill="#FACBB6"/>
<path fill-rule="evenodd" clip-rule="evenodd" d="M9.237 17.7253C9.237 17.7253 9.74108 17.7393 10.3047 17.5479C10.2769 17.5479 10.4436 20.4424 10.3881 20.5077C10.3325 20.5731 8.68131 20.5498 8.63368 20.4937C8.62575 20.4844 8.35187 19.56 8.50667 18.8877C8.6575 18.2155 9.237 17.7953 9.237 17.7253Z" fill="#FD7D7C"/>
<path d="M5.96547 20.6253C6.09733 20.2604 6.50169 19.9735 6.60506 19.8696C6.60506 19.8696 6.87739 19.6084 7.33171 18.9361C7.73469 18.3336 9.14177 17.7087 9.25068 18.5732C9.32492 19.183 8.20816 19.8816 7.2786 20.7035C6.71498 21.2038 5.86723 22.1458 5.78751 22.0829C5.38703 21.7562 5.96547 20.6253 5.96547 20.6253Z" fill="#FACBB6"/>
<path fill-rule="evenodd" clip-rule="evenodd" d="M9.72556 22.6183C9.69863 22.5777 9.54266 22.3226 9.82185 22.4729C9.96579 22.5472 10.1482 22.4972 10.2899 22.4499C10.6023 22.3447 10.7229 22.5759 10.8113 22.793C10.5993 23.1383 9.4709 23.1752 9.38896 23.1501C9.31746 22.8993 9.40588 22.8012 9.33434 22.708C9.33885 22.636 9.62061 22.6078 9.72556 22.6183Z" fill="#01384F"/>
<path fill-rule="evenodd" clip-rule="evenodd" d="M5.85288 21.9483C5.87371 21.9084 6.01211 21.6689 6.04077 21.9645C6.0584 22.1155 6.2108 22.2442 6.33687 22.3404C6.61555 22.5523 6.47781 22.7523 6.3339 22.9195C5.89753 22.895 5.20053 21.9805 5.17496 21.902C5.35921 21.734 5.49981 21.7642 5.5418 21.6647C5.60946 21.6371 5.79393 21.8573 5.85288 21.9483Z" fill="#01384F"/>
<path fill-rule="evenodd" clip-rule="evenodd" d="M9.56969 18.8558C9.66034 18.6525 9.65823 18.2035 9.65823 18.2035C9.65823 18.2035 9.33623 18.0824 9.25573 18.0522C8.03668 17.5913 8.25313 17.9301 6.70726 19.4095C6.76704 19.7124 7.41938 20.3398 7.90946 20.6733C8.31253 20.4994 9.16748 19.7722 9.56969 18.8558Z" fill="#FD7D7C"/>
<path fill-rule="evenodd" clip-rule="evenodd" d="M8.53096 15.2765C8.53096 15.2765 8.94633 15.5096 9.14648 15.3943C9.46724 15.2137 9.31959 14.9734 9.3408 14.9857C9.35827 14.9994 9.72567 15.0118 9.94217 15.376C10.2 15.8098 10.3654 17.4355 10.3743 17.497C10.3832 17.5584 10.0854 17.9368 9.52522 18.0006C8.23802 18.1461 7.95146 18.0995 7.90536 18.0884C7.86424 18.0795 7.81334 16.0102 8.1383 15.5649C8.21767 15.4543 8.40408 15.3239 8.53096 15.2765Z" fill="#E8E7E7"/>
<path fill-rule="evenodd" clip-rule="evenodd" d="M5.97424 18.6185C5.97424 18.6185 6.96536 17.0118 8.15075 16.5748C8.63341 16.3989 8.92837 15.9318 8.69313 15.5567C8.45788 15.1816 7.80704 15.4134 6.91256 16.2633C5.63116 17.4683 5.27095 19.06 5.97424 18.6185Z" fill="#FACBB6"/>
<path fill-rule="evenodd" clip-rule="evenodd" d="M6.02545 18.5567C5.92054 18.7071 5.93503 18.7465 5.92098 18.8766C5.90158 18.9615 5.87259 18.8825 5.85219 18.8346C5.85319 18.9674 5.87081 19.1991 5.83156 19.1993C5.79232 19.1995 5.74616 19.0584 5.73011 18.9229C5.73011 18.9229 5.68852 19.2764 5.65518 19.285C5.57022 19.3137 5.59409 18.9349 5.59409 18.9349C5.52518 19.0992 5.51972 19.2603 5.46542 19.2578C5.38693 19.2582 5.45874 18.7039 5.5718 18.415C5.62832 18.2705 5.7639 18.0889 5.7639 18.0889C5.7639 18.0889 6.07172 18.4915 6.02545 18.5567Z" fill="#FACBB6"/>
<path fill-rule="evenodd" clip-rule="evenodd" d="M9.02457 15.706C9.02457 15.706 8.61364 14.9472 7.40054 15.7133L6.88336 16.066L7.49103 17.02C7.48468 17.0093 9.25492 16.3093 9.02457 15.706Z" fill="#E8E7E7"/>
<path fill-rule="evenodd" clip-rule="evenodd" d="M11.3171 13.5426C11.4325 13.3253 11.599 13.2671 11.7159 13.2307C11.7903 13.1979 11.7124 13.1868 11.6646 13.1776C11.7868 13.1541 12.0028 13.127 11.9958 13.0922C11.9888 13.0575 11.8507 13.0427 11.7232 13.0535C11.7232 13.0535 12.0403 12.9516 12.0421 12.9205C12.0528 12.8401 11.7092 12.931 11.7092 12.931C11.8474 12.8398 11.9944 12.8053 11.9821 12.7578C11.968 12.6883 11.4721 12.8539 11.2275 13.0071C11.1053 13.0836 10.9634 13.2369 10.9634 13.2369C10.9634 13.2369 11.2798 13.612 11.3171 13.5426Z" fill="#F7C0B5"/>
<path d="M9.76331 13.9795C9.8273 14.6432 9.38656 14.7783 9.08057 14.8848C8.62717 15.0456 7.27376 14.8073 7.20977 14.1437C7.14578 13.4801 7.94871 12.9043 8.41603 12.8212C8.88574 12.7358 9.69932 13.3159 9.76331 13.9795Z" fill="#FACBB6"/>
<path d="M8.15417 14.4625C8.36121 14.4756 8.50793 14.5613 8.48544 14.6445C8.41624 14.9261 8.28398 15.035 8.07694 15.022C7.8699 15.0089 7.77964 14.8805 7.80154 14.7239C7.82104 14.5697 7.94712 14.4495 8.15417 14.4625Z" fill="#FACBB6"/>
<path fill-rule="evenodd" clip-rule="evenodd" d="M8.37196 14.9034C8.37196 14.9034 8.15749 15.3852 7.37358 14.9243C6.71539 14.5333 6.99642 14.2889 6.95204 14.1981C6.56748 13.3882 6.90767 12.9413 7.48451 12.669C7.75075 12.5433 7.70637 12.271 7.98 12.1104C8.07614 12.0545 8.54945 12.0824 8.4607 12.5433C8.4607 12.5572 8.63819 12.2989 8.71214 12.271C9.14108 12.1034 9.48866 12.8296 9.12629 13.0041C8.57903 13.2695 8.23884 13.4929 8.07614 13.9118C7.89865 14.3517 8.50507 14.3727 8.38675 14.638C8.37935 14.659 8.22405 14.6241 8.20186 14.6241C8.15749 14.6241 7.9874 14.6241 7.94302 14.6241C7.8247 14.6241 7.73595 15.0919 8.37196 14.9034Z" fill="#01384F"/>
<path fill-rule="evenodd" clip-rule="evenodd" d="M9.38272 15.1139C9.38272 15.1139 9.81665 15.5124 9.98677 15.868C10.0258 15.9573 10.0718 16.0458 10.1037 16.1358C10.1639 16.285 10.2258 16.5118 10.2258 16.5118C10.232 16.5656 10.2198 16.3959 10.2354 16.6585C10.2582 16.9203 10.3565 17.1511 10.2885 17.5621L10.3097 17.6221C10.3097 17.6221 10.4522 17.3589 10.4915 17.1995C10.5335 17.001 10.4833 16.6876 10.4859 16.7106C10.4507 16.4656 10.2022 15.4886 9.62703 15.1122C9.32346 14.9101 9.38639 15.0202 9.35173 15.0315C9.29575 15.045 9.40493 15.1194 9.38272 15.1139Z" fill="#2A94F4"/>
<path fill-rule="evenodd" clip-rule="evenodd" d="M7.79184 15.3097C7.79184 15.3097 8.07612 15.4492 8.08416 15.4483C8.13692 15.4831 8.00535 15.3281 8.2532 15.5755C8.63613 15.9374 8.63093 16.5315 8.61355 16.8059C8.57594 17.2589 8.31304 17.5905 7.97067 17.9382C7.71568 18.1969 7.95563 18.02 7.78789 18.1173L7.6576 18.1867C7.6576 18.1867 7.93087 18.1589 8.22436 17.9525C8.92284 17.4481 9.12898 16.3363 8.8788 15.7843C8.72636 15.447 8.37934 15.1856 7.97113 15.1711L7.72651 15.2362C7.6114 15.2961 7.81596 15.3073 7.79184 15.3097Z" fill="#2A94F4"/>
<path d="M16.0016 2.05171C16.4518 1.77881 16.5807 1.21034 16.2895 0.78198C15.9982 0.353625 15.3971 0.227603 14.9469 0.500502C14.4966 0.7734 14.3678 1.34188 14.659 1.77023C14.9502 2.19859 15.5513 2.32461 16.0016 2.05171Z" fill="#01384F"/>
<path d="M15.6799 3.0464C16.0511 2.82142 16.1571 2.35229 15.9166 1.99857C15.6761 1.64485 15.1802 1.54049 14.809 1.76548C14.4378 1.99046 14.3319 2.4596 14.5724 2.81331C14.8128 3.16703 15.3087 3.27139 15.6799 3.0464Z" fill="#2A94F4"/>
<path d="M14.7781 4.53155L14.7855 5.73953C14.7855 5.99788 14.9556 5.96297 15.2219 5.95599C15.4511 5.95599 15.6656 5.91409 15.6878 5.69763L15.6212 4.16846L14.7781 4.53155Z" fill="#DBA17B"/>
<path d="M16.5012 2.92536C16.5012 3.62361 15.9318 4.18221 15.2218 4.18221C14.5119 4.18221 13.9424 3.61663 13.9424 2.92536C13.9424 2.22711 14.5119 1.75928 15.2218 1.75928C15.9318 1.75928 16.5012 2.23409 16.5012 2.92536Z" fill="#01384F"/>
<path d="M16.7231 3.55376C16.7231 3.73531 16.5678 3.88194 16.3755 3.88194C16.1833 3.88194 16.028 3.73531 16.028 3.55376C16.028 3.37222 16.1833 3.22559 16.3755 3.22559C16.5678 3.22559 16.7231 3.37222 16.7231 3.55376Z" fill="#DBA17B"/>
<path d="M14.0312 3.88194C14.2231 3.88194 14.3788 3.73501 14.3788 3.55376C14.3788 3.37252 14.2231 3.22559 14.0312 3.22559C13.8392 3.22559 13.6836 3.37252 13.6836 3.55376C13.6836 3.73501 13.8392 3.88194 14.0312 3.88194Z" fill="#DBA17B"/>
<path d="M16.2793 2.94618C16.2793 3.35814 16.2128 3.72124 16.1536 3.97261C16.0945 4.22398 15.917 4.39854 15.6655 4.53819L15.6212 4.56612C15.3549 4.71276 15.0221 4.71974 14.7559 4.57311C14.4897 4.42647 14.2974 4.23794 14.2382 3.97261C14.1347 3.48383 14.1199 2.94618 14.1199 2.94618C14.1199 2.94618 14.0164 1.8988 15.1848 1.91974C16.3533 1.94069 16.2793 2.94618 16.2793 2.94618Z" fill="#DBA17B"/>
<path d="M15.9244 2.04546C15.9244 2.04546 15.6433 3.21853 14.009 3.11379C14.009 3.11379 14.0755 1.96167 14.8668 1.86391C14.8668 1.86391 15.6433 1.75918 15.9244 2.04546Z" fill="#01384F"/>
<path d="M15.5176 1.91992C15.5176 1.91992 15.5768 2.7299 16.272 3.19074L16.3755 2.8067C16.3755 2.8067 16.4864 2.00371 15.5176 1.91992Z" fill="#01384F"/>
<path d="M14.3492 2.92529L14.1569 3.42804L14.0756 2.92529H14.3492Z" fill="#01384F"/>
<path d="M16.0501 2.92529L16.2424 3.38614L16.3237 2.92529H16.0501Z" fill="#01384F"/>
<path d="M13.7945 22.7554L13.7649 21.0028L14.6375 20.9609L14.5784 22.7973L13.7945 22.7554Z" fill="#DBA17B"/>
<path d="M14.7485 22.4135C14.7485 22.4135 14.0755 22.6858 13.7649 22.2529L12.2637 23.0839L14.963 23.0629L14.7485 22.4135Z" fill="#01384F"/>
<path d="M12.2551 23.326L14.9544 23.3081L14.9526 23.0707L12.2533 23.0885L12.2551 23.326Z" fill="#01384F"/>
<path d="M19.5925 22.7554L19.2153 21.0028L18.3427 20.9609L18.8086 22.7973L19.5925 22.7554Z" fill="#DBA17B"/>
<path d="M18.6385 22.4135C18.6385 22.4135 19.3115 22.6858 19.6221 22.2529L21.1233 23.0839L18.424 23.0629L18.6385 22.4135Z" fill="#01384F"/>
<path d="M21.1322 23.0867L18.4329 23.0688L18.4311 23.3063L21.1304 23.3241L21.1322 23.0867Z" fill="#01384F"/>
<path d="M14.9112 21.2195L15.4215 11.3532L15.6064 11.3392L18.0912 21.2265L19.4076 21.0938L17.8324 11.5906C17.8324 11.5906 17.3591 9.9008 16.4864 8.88135L14.6598 8.7417C14.6598 8.7417 13.1068 10.3966 13.1363 12.1492C13.1659 13.9018 13.4913 21.2195 13.4913 21.2195" fill="#FD7D7C"/>
<path d="M13.2694 6.4238L12.4412 9.3844C12.3672 9.61482 12.5299 9.85223 12.7813 9.88714C12.9736 9.91507 13.2177 9.80335 13.2842 9.62878L14.3492 6.77293C14.4675 6.48665 14.3122 6.16545 14.009 6.06769C13.6984 5.96296 13.3582 6.12355 13.2694 6.4238Z" fill="#DBA17B"/>
<path d="M12.4116 9.49607L12.0566 12.5335L12.6852 12.5055L13.2842 9.6008C13.3286 9.37038 13.1585 9.09108 12.9144 9.05617C12.663 9.02125 12.4337 9.25866 12.4116 9.49607Z" fill="#DBA17B"/>
<path d="M12.1453 12.3237C12.1453 12.3237 11.2653 13.3711 12.1601 13.9227C12.2193 13.9576 12.3006 13.9507 12.345 13.9018L12.3524 13.8948C12.4042 13.8389 12.4116 13.7552 12.3598 13.6993C12.2415 13.5596 12.0862 13.2873 12.3968 12.9591C12.3968 12.9591 12.5447 13.008 12.4929 13.2873C12.4781 13.3571 12.5373 13.427 12.6112 13.42C12.663 13.42 12.7074 13.3851 12.7296 13.3362C12.7961 13.1547 12.9145 12.6938 12.626 12.4285L12.1453 12.3237Z" fill="#DBA17B"/>
<path d="M16.2941 6.03304L20.5982 9.79662L21.1011 9.21707L17.1002 5.48142C16.9227 5.27892 16.516 5.2091 16.3015 5.37668L16.3237 5.35573C16.1166 5.52331 16.1018 5.83753 16.2941 6.03304Z" fill="#DBA17B"/>
<path d="M14.889 5.39048L13.7205 6.15158L14.6671 8.73511L16.4938 8.88175L16.7304 6.50769L16.6417 5.25781L14.889 5.39048Z" fill="#DBA17B"/>
<path d="M14.3713 5.69083C14.3713 5.69083 14.608 6.38908 15.3031 6.24245C15.9983 6.09581 16.0205 5.29282 16.0205 5.29282L16.9227 5.22998L16.5604 8.38609H14.2604L13.58 6.04694L14.3713 5.69083Z" fill="#2A94F4"/>
<path d="M26.5885 23.7756L26.5516 21.4434L25.531 21.3945L25.6789 23.8314L26.5885 23.7756Z" fill="#FACBB6"/>
<path d="M25.5608 23.3707C25.5608 23.3707 26.3373 23.6919 26.7071 23.1821L28.6003 24.1667L25.3242 24.1457L25.5608 23.3707Z" fill="#01384F"/>
<path d="M28.6017 24.1709L25.3256 24.1499L25.3236 24.4292L28.5997 24.4502L28.6017 24.1709Z" fill="white"/>
<path d="M18.9491 23.8176L19.9031 21.4854L20.9237 21.4365L19.8587 23.8734L18.9491 23.8176Z" fill="#FACBB6"/>
<path d="M20.1989 23.3985C20.1989 23.3985 19.4224 23.7197 19.0526 23.21L17.1594 24.1945L20.4356 24.1736L20.1989 23.3985Z" fill="#01384F"/>
<path d="M17.167 24.4688L20.4431 24.4478L20.4411 24.1685L17.165 24.1895L17.167 24.4688Z" fill="white"/>
<path d="M26.3741 11.7446L27.1284 22.6094L24.8876 22.6304L24.1037 13.4274L20.8423 22.4349L18.3945 22.1975L21.9664 11.7446H26.3741Z" fill="#01384F"/>
<path d="M22.2918 8.6233C22.2918 8.6233 21.1011 11.123 20.5095 13.8183L19.8957 13.6996C19.8957 13.6996 20.2433 10.4457 21.0642 8.02979L22.2918 8.6233Z" fill="#FACBB6"/>
<path d="M19.9549 13.4829C19.9549 13.4829 18.9121 14.7328 19.9844 15.4101C20.0584 15.452 20.1471 15.445 20.2063 15.3891L20.2137 15.3822C20.2803 15.3193 20.2803 15.2216 20.2211 15.1517C20.0732 14.9842 19.8883 14.649 20.2581 14.258C20.2581 14.258 20.4356 14.3138 20.3764 14.656C20.3616 14.7398 20.4282 14.8236 20.5243 14.8236C20.5835 14.8236 20.6426 14.7817 20.6648 14.7258C20.7388 14.5024 20.8867 13.9577 20.5317 13.6295L19.9549 13.4829Z" fill="#FACBB6"/>
<path d="M22.277 6.14453C22.277 6.14453 21.4413 6.36797 20.7979 7.91111L22.3509 8.81186L22.6837 7.98094L22.277 6.14453Z" fill="#FD7D7C"/>
<path d="M26.1448 8.33717C26.1448 8.33717 27.2541 10.8369 27.8087 13.5322L28.3856 13.4135C28.3856 13.4135 28.0602 10.1596 27.2911 7.74365L26.1448 8.33717Z" fill="#FACBB6"/>
<path d="M28.3264 13.1899C28.3264 13.1899 29.2952 14.4398 28.2969 15.1171C28.2303 15.159 28.1415 15.152 28.0898 15.0962L28.0824 15.0892C28.0232 15.0263 28.0232 14.9286 28.075 14.8588C28.2081 14.6912 28.3856 14.356 28.038 13.965C28.038 13.965 27.8753 14.0209 27.9271 14.363C27.9419 14.4468 27.8753 14.5306 27.7866 14.5306C27.7274 14.5306 27.6756 14.4887 27.6608 14.4328C27.5869 14.2094 27.4538 13.6648 27.7866 13.3366L28.3264 13.1899Z" fill="#FACBB6"/>
<path d="M26.1596 5.8584C26.1596 5.8584 26.9361 6.08184 27.5351 7.62498L26.0856 8.52573L25.775 7.6948L26.1596 5.8584Z" fill="#FD7D7C"/>
<path d="M25.0281 5.3623L25.568 6.15133C25.7676 6.22116 26.0117 6.60519 25.9895 6.82165C25.9895 6.8426 25.9821 6.86355 25.9895 6.8845L26.4554 11.7374L21.7593 12.2541L22.0699 6.43761C22.033 6.29098 22.0773 6.22116 22.2179 6.1653L23.2976 5.75333L25.0281 5.3623Z" fill="#FD7D7C"/>
<path d="M24.3182 5.71877L24.2664 4.48984L23.2606 4.46191L23.2015 5.90032C23.1941 6.06091 23.3346 6.026 23.5047 6.01902L24.0593 5.99109C24.2072 5.99109 24.3255 5.8654 24.3182 5.71877Z" fill="#FACBB6"/>
<path d="M23.2976 4.74795L24.3034 5.31354L24.2664 4.49658L23.2976 4.74795Z" fill="#F6B7A0"/>
<path d="M25.4719 3.617C25.4719 3.81949 25.3018 3.98009 25.0947 3.98009C24.8876 3.98009 24.7175 3.81949 24.7175 3.617C24.7175 3.4145 24.8876 3.25391 25.0947 3.25391C25.3018 3.26089 25.4719 3.42149 25.4719 3.617Z" fill="#FACBB6"/>
<path d="M22.1069 3.617C22.1069 3.81949 22.277 3.98009 22.4841 3.98009C22.6912 3.98009 22.8613 3.81949 22.8613 3.617C22.8613 3.4145 22.6912 3.25391 22.4841 3.25391C22.277 3.25391 22.1069 3.42149 22.1069 3.617Z" fill="#FACBB6"/>
<path d="M24.9615 2.97452C24.9615 3.43536 24.895 3.83337 24.821 4.11965C24.7545 4.39895 24.5622 4.58748 24.2886 4.74808L24.2368 4.77601C23.9484 4.94359 23.586 4.94359 23.2902 4.78299C22.9944 4.62239 22.7947 4.41292 22.7281 4.11267C22.6098 3.57501 22.6024 2.97452 22.6024 2.97452C22.6024 2.97452 22.4915 1.80843 23.7635 1.82938C25.0429 1.85033 24.9615 2.97452 24.9615 2.97452Z" fill="#FACBB6"/>
<path d="M22.6764 3.44216C22.6764 3.44216 22.9426 2.61822 22.7503 2.08057C22.7503 2.08057 22.1513 2.37383 22.6764 3.44216Z" fill="#01384F"/>
<path d="M24.9172 3.44216C24.9172 3.44216 24.577 2.61822 24.7767 2.08057C24.7693 2.08057 25.3831 2.30401 24.9172 3.44216Z" fill="#01384F"/>
<path d="M22.6616 2.20652C22.6616 2.20652 24.3404 3.03046 24.9912 2.38108C24.9912 2.38108 25.5236 1.86438 24.9394 1.46637C24.3552 1.06837 23.0092 1.76662 23.0092 1.76662C23.0092 1.76662 22.706 1.83645 22.6616 2.20652Z" fill="#01384F"/>
<path d="M22.6616 2.20665C22.6616 2.20665 22.351 1.67598 23.2384 1.41064C23.2384 1.41064 23.4529 1.6271 23.1423 1.9064C22.8391 2.18571 22.6616 2.20665 22.6616 2.20665Z" fill="#01384F"/>
<path d="M23.5564 5.66299L22.6912 5.99117L23.8892 6.2984L24.8136 5.41162L23.5564 5.66299Z" fill="#FACBB6"/>
<path fill-rule="evenodd" clip-rule="evenodd" d="M30.1168 15.5236C30.1706 15.2455 30.1019 14.7634 30.6133 14.4919C30.7485 14.4231 30.9406 13.8476 31.8534 14.1582C33.2896 14.6479 33.2471 15.5919 33.3532 15.6904C33.7396 16.0505 33.4901 16.461 33.2997 16.6057C33.3146 16.6038 33.535 16.9332 33.3569 17.1496C33.0503 17.5242 32.8625 17.2466 32.7846 17.2264C32.9367 17.3621 33.0325 17.66 32.7662 17.9607C32.5561 18.1939 32.2085 18.0012 32.046 17.9357C31.9544 17.8956 31.8731 17.8155 31.7939 17.7523C31.8045 17.8414 31.8119 17.5864 31.7642 17.6614C31.5938 17.9112 31.1292 18.0992 30.9899 17.6906C31.0234 17.6864 30.9419 17.8259 30.9317 17.8358C30.8718 17.9036 30.7293 17.9432 30.646 17.9408C30.4225 17.9347 30.3159 17.7372 30.2892 17.5124C30.3115 17.5096 30.2561 17.5511 30.2454 17.5567C30.2097 17.5742 30.1708 17.5963 30.1299 17.6015C30.0221 17.6152 29.9346 17.5143 29.8607 17.4333C29.731 17.2947 29.662 17.1269 29.7343 16.9412C29.7424 16.9144 29.829 16.8173 29.8285 16.813C29.7727 16.8201 29.7264 16.7485 29.6874 16.706C29.5877 16.5981 29.5192 16.4346 29.5345 16.2776C29.5464 16.1556 29.604 16.0363 29.672 15.9416C29.8075 15.7479 30.053 15.8761 30.1168 15.5236Z" fill="#01384F"/>
<path fill-rule="evenodd" clip-rule="evenodd" d="M30.4786 20.9869C30.1961 20.8104 30.5037 16.4704 30.676 16.5118C31.0511 16.6144 32.9421 16.6794 33.2381 16.9812C33.402 17.1558 33.3974 17.5195 33.4079 17.7357C33.4418 18.4332 33.4973 20.4928 33.0102 20.8284C32.7382 21.0219 30.7762 21.1697 30.4786 20.9869Z" fill="#FD7D7C"/>
<path fill-rule="evenodd" clip-rule="evenodd" d="M32.8864 17.1805C33.2319 17.2497 33.2289 17.7573 33.2181 18.1038C33.2121 18.5906 33.1925 19.0862 33.1186 19.5674C33.0589 19.9905 33.2474 20.6924 32.7685 20.6822C32.5291 20.6771 32.4758 20.3527 32.4925 20.0477L32.5517 19.5683C32.5488 19.5475 32.5459 19.5267 32.5503 19.5051C32.5152 18.8332 32.6307 18.1706 32.6826 17.4808C32.6997 17.3378 32.7071 17.3369 32.7295 17.2847C32.7584 17.2247 32.7965 17.1777 32.8864 17.1805Z" fill="#FED17A"/>
<path fill-rule="evenodd" clip-rule="evenodd" d="M31.2482 17.7654C31.3084 17.4801 31.0333 17.2432 30.8951 17.0434C30.5369 16.527 28.8481 14.5164 28.6601 14.6118C28.2195 14.8391 29.0956 16.0628 29.5025 16.7527C29.8788 17.394 30.1157 18.0937 30.6767 18.1374C30.83 18.1559 31.1818 18.084 31.2482 17.7654Z" fill="#DBA17B"/>
<path d="M31.0174 20.5687L31.9117 19.2054C32.1049 18.3867 32.236 18.1318 31.9321 17.4228C31.8549 17.242 31.6062 17.1323 31.5018 16.9251C31.2861 16.4987 30.974 16.5613 30.7284 16.6706C30.1691 16.9245 30.074 17.0818 30.0143 17.4086L29.7341 19.793C29.6798 20.2718 30.6526 20.8473 31.0174 20.5687Z" fill="#F7C0B5"/>
<path d="M29.9091 18.4329C29.9091 18.4329 29.4265 19.7528 29.9095 21.2667L31.4638 21.2187C32.3642 20.7798 32.3465 19.9603 31.7037 18.7612C31.0157 17.8705 29.9091 18.4329 29.9091 18.4329Z" fill="#F7C0B5"/>
<path d="M30.9955 17.4112C31.2033 17.4613 31.4028 17.3383 31.443 17.1417L31.5821 16.4636C31.6241 16.2646 31.4875 16.0655 31.2822 16.0173C31.077 15.9691 30.875 16.0902 30.8348 16.2868L30.6956 16.9649C30.6554 17.1615 30.7903 17.363 30.9955 17.4112Z" fill="#DBA17B"/>
<path d="M29.8331 24.805C30.267 24.2347 30.8213 23.0721 30.5399 22.7442C30.5399 22.7442 30.8382 22.3216 31.0817 21.5126C31.3024 20.7899 30.8084 19.3448 29.9915 19.8954C29.4153 20.2815 29.6341 21.579 29.6072 22.8288C29.5874 23.5882 29.7661 24.8889 29.8331 24.805Z" fill="#DBA17B"/>
<path d="M32.7025 23.5972C32.7604 23.1673 32.506 22.6898 32.4533 22.5363C32.4533 22.5363 32.3145 22.1469 32.2128 21.2536C32.122 20.4559 31.0315 19.1691 30.4704 19.9907C30.0736 20.5679 30.8343 21.7975 31.336 23.06C31.641 23.8268 32.0021 25.1747 32.1135 25.147C32.69 25.0071 32.7025 23.5972 32.7025 23.5972Z" fill="#DBA17B"/>
<path fill-rule="evenodd" clip-rule="evenodd" d="M29.7109 24.4906C29.723 24.4374 29.7956 24.1369 29.5598 24.373C29.4399 24.4936 29.2356 24.4996 29.0813 24.4911C28.7267 24.474 28.6831 24.748 28.6684 24.9954C29.0002 25.2796 30.1528 24.9816 30.2274 24.9269C30.2126 24.6493 30.0911 24.5809 30.136 24.4582C30.1062 24.3901 29.8148 24.4472 29.7109 24.4906Z" fill="#FD7D7C"/>
<path fill-rule="evenodd" clip-rule="evenodd" d="M32.2041 24.7671C32.2196 24.7189 32.312 24.447 32.0477 24.6437C31.9133 24.7442 31.6939 24.7303 31.5287 24.7078C31.1492 24.6582 31.0892 24.9083 31.0616 25.1365C31.4038 25.4318 32.6545 25.2648 32.7371 25.2212C32.7346 24.9621 32.6076 24.8871 32.6616 24.7775C32.642 24.7116 32.3177 24.7368 32.2041 24.7671Z" fill="#FD7D7C"/>
<path fill-rule="evenodd" clip-rule="evenodd" d="M30.3528 19.5214C30.3676 19.4935 30.3823 19.4656 30.4045 19.4446C30.5746 19.2421 31.1663 19.0815 31.1663 19.0815C31.1663 19.0815 31.5212 19.2352 31.6026 19.284C32.6601 19.9055 32.771 20.9529 32.8376 21.5953C32.5492 21.7628 31.4325 21.9095 30.6856 21.9025C30.6338 21.9514 29.3396 21.7628 29.3396 21.7628C29.3396 21.7628 29.3544 21.0786 29.4505 20.4082C29.5171 19.9194 29.6798 19.3958 29.6724 19.3888C29.9164 19.4586 30.1605 19.5005 30.3528 19.5214Z" fill="#2A94F4"/>
<path fill-rule="evenodd" clip-rule="evenodd" d="M30.693 16.7005C30.693 16.7005 30.2418 17.1473 30.0939 17.5244C30.057 17.6152 30.02 17.7129 29.9904 17.8107C29.9386 17.9713 29.9017 18.2017 29.9017 18.2017C29.9017 18.2576 29.8943 18.083 29.9091 18.3553C29.9164 18.6207 29.8351 18.865 29.9682 19.27L29.9534 19.3329C29.9534 19.3329 29.7538 19.0815 29.6946 18.9209C29.6206 18.7254 29.6354 18.4042 29.6354 18.4251C29.6502 18.1738 29.8055 17.1683 30.4193 16.7284C30.7447 16.498 30.6856 16.6097 30.7299 16.6167C30.7891 16.6306 30.6782 16.7144 30.693 16.7005Z" fill="#FD7D7C"/>
<path fill-rule="evenodd" clip-rule="evenodd" d="M31.5459 16.9826C31.5459 16.9826 31.1055 17.2267 30.8919 17.1086C30.5527 16.9168 30.7062 16.661 30.6898 16.6739C30.6697 16.6855 30.3744 16.7547 30.1441 17.1385C29.8712 17.598 29.6041 19.2671 29.5933 19.3319C29.5861 19.3979 29.9 19.7981 30.4946 19.8638C31.8591 20.0187 32.1729 19.6356 32.2247 19.6244C32.2682 19.6139 32.3066 17.7561 31.9623 17.2835C31.878 17.1718 31.6798 17.0327 31.5459 16.9826Z" fill="#CDEAFB"/>
<path fill-rule="evenodd" clip-rule="evenodd" d="M34.1395 19.8039C34.1395 19.8039 32.9467 19.6406 32.4683 18.1826C32.287 17.64 31.9248 16.973 31.564 17.2846C31.2032 17.5962 31.2315 18.2734 31.9697 19.217C32.732 20.1861 34.5947 20.4817 34.1395 19.8039Z" fill="#DBA17B"/>
<path fill-rule="evenodd" clip-rule="evenodd" d="M33.9711 20.1636C34.1241 20.1632 34.1628 20.1954 34.2782 20.2489C34.3535 20.2819 34.2893 20.21 34.2573 20.174C34.3712 20.2392 34.5675 20.3769 34.5838 20.3459C34.6 20.3149 34.4855 20.2066 34.3798 20.1258C34.3798 20.1258 34.6961 20.2818 34.7174 20.2588C34.7666 20.209 34.4285 20.0329 34.4285 20.0329C34.5835 20.0638 34.7325 20.1416 34.7437 20.1027C34.7645 20.0365 34.2661 19.8216 33.9809 19.7564C33.8442 19.7259 33.6464 19.741 33.6464 19.741C33.6464 19.741 33.8964 20.1737 33.9711 20.1636Z" fill="#DBA17B"/>
<path fill-rule="evenodd" clip-rule="evenodd" d="M28.5919 15.1468C28.4646 14.9193 28.2957 14.8591 28.1736 14.8196C28.095 14.7921 28.1853 14.7748 28.2304 14.7661C28.1033 14.7387 27.871 14.7148 27.8742 14.6734C27.8775 14.632 28.0279 14.6197 28.1567 14.6264C28.1567 14.6264 27.8172 14.5269 27.8122 14.4889C27.812 14.3889 28.1799 14.4867 28.1799 14.4867C28.0377 14.3954 27.8755 14.3525 27.8871 14.3077C27.9054 14.23 28.4238 14.4156 28.6898 14.5756C28.8169 14.6531 28.9692 14.8202 28.9692 14.8202C28.9692 14.8202 28.6388 15.2175 28.5919 15.1468Z" fill="#DBA17B"/>
<path d="M30.2399 15.6106C30.1708 16.3148 30.6408 16.4546 30.9625 16.5712C31.4427 16.7416 32.8745 16.4881 32.9436 15.7839C33.0126 15.0796 32.1617 14.4731 31.6666 14.3824C31.1692 14.2895 30.3089 14.9063 30.2399 15.6106Z" fill="#DBA17B"/>
<path d="M31.9452 16.1187C31.7263 16.1326 31.5712 16.2218 31.5931 16.3133C31.6686 16.6098 31.8092 16.7281 32.0281 16.7143C32.2469 16.7004 32.344 16.5621 32.3204 16.3991C32.2988 16.2339 32.164 16.1049 31.9452 16.1187Z" fill="#DBA17B"/>
<path fill-rule="evenodd" clip-rule="evenodd" d="M31.2805 14.3214C31.0973 14.7128 31.0903 15.1721 31.2847 15.5923C31.3484 15.7318 31.3659 15.8722 31.433 16.0133C31.56 16.2842 31.7989 16.3874 31.9529 16.2807C32.1359 16.1565 32.2583 16.3572 32.2343 16.453C32.1874 16.6331 32.3076 16.6252 32.3471 16.621C32.3865 16.6167 32.428 16.5815 32.4603 16.5657C32.6439 16.4937 32.7793 16.3379 32.8731 16.1732C32.9744 15.9923 33.0899 15.639 33.0283 15.4327C32.8247 14.7566 32.0631 14.2411 31.9574 14.2003C31.7526 14.1221 31.3495 14.1564 31.2465 14.3763" fill="#01384F"/>
<path fill-rule="evenodd" clip-rule="evenodd" d="M32.0537 17.0634C32.0537 17.0634 31.7801 17.224 31.7727 17.231C31.7209 17.2729 31.8392 17.1053 31.61 17.3706C31.2624 17.7686 31.329 18.3412 31.3881 18.6135C31.4769 19.0464 31.7875 19.3467 32.1794 19.6539C32.4678 19.8773 32.209 19.7307 32.3865 19.8075L32.527 19.8634C32.527 19.8634 32.246 19.8634 31.928 19.6888C31.1589 19.2699 30.8187 18.2015 31.011 17.6359C31.1219 17.2938 31.4547 17.0005 31.8688 16.9517L32.1203 16.9866C32.2386 17.0355 32.0315 17.0634 32.0537 17.0634Z" fill="#FD7D7C"/>
<path fill-rule="evenodd" clip-rule="evenodd" d="M33.3926 20.7243C33.2988 20.7592 33.2385 20.85 33.2385 20.9477C33.2519 21.1851 33.272 21.6181 33.2787 21.8555C33.2854 21.9532 33.3591 22.044 33.4596 22.0649C33.6472 22.1068 33.9287 22.1767 34.0761 22.2116C34.1364 22.2255 34.1967 22.2186 34.2503 22.1906C34.3977 22.1138 34.7193 21.9602 34.9002 21.8764C34.9739 21.8415 35.0275 21.7647 35.0342 21.6879C35.0476 21.4644 35.0744 21.0106 35.0945 20.7592C35.1012 20.6545 35.0275 20.5567 34.9203 20.5288C34.7595 20.4869 34.5384 20.4171 34.4178 20.3891C34.3642 20.3752 34.3106 20.3752 34.257 20.3961C34.0761 20.459 33.6338 20.6335 33.3926 20.7243Z" fill="#EEC2B0"/>
<mask id="mask0_6990_1253" style="mask-type:luminance" maskUnits="userSpaceOnUse" x="33" y="20" width="3" height="3">
<path d="M33.3926 20.7243C33.2988 20.7592 33.2385 20.85 33.2385 20.9477C33.2519 21.1851 33.272 21.6181 33.2787 21.8555C33.2854 21.9532 33.3591 22.044 33.4596 22.0649C33.6472 22.1068 33.9287 22.1767 34.0761 22.2116C34.1364 22.2255 34.1967 22.2186 34.2503 22.1906C34.3977 22.1138 34.7193 21.9602 34.9002 21.8764C34.9739 21.8415 35.0275 21.7647 35.0342 21.6879C35.0476 21.4644 35.0744 21.0106 35.0945 20.7592C35.1012 20.6545 35.0275 20.5567 34.9203 20.5288C34.7595 20.4869 34.5384 20.4171 34.4178 20.3891C34.3642 20.3752 34.3106 20.3752 34.257 20.3961C34.0761 20.459 33.6338 20.6335 33.3926 20.7243Z" fill="white"/>
</mask>
<g mask="url(#mask0_6990_1253)">
<path fill-rule="evenodd" clip-rule="evenodd" d="M34.0549 22.2807C34.0555 22.117 34.0486 21.9603 34.0422 21.7963C34.04 21.692 34.0378 21.5877 34.0356 21.4834C34.0344 21.3568 34.0069 21.1917 34.0475 21.0747C34.0881 20.9576 34.2021 20.9262 34.3025 20.8865C34.4604 20.8201 34.6119 20.7384 34.7565 20.6564C34.8866 20.581 35.0171 20.4983 35.1473 20.423C35.1908 20.3954 35.2627 20.3618 35.3102 20.4014C35.4725 20.5436 35.4078 20.8752 35.3848 21.0675C35.3504 21.3561 35.3153 21.8083 35.0944 22.0204C34.9618 22.1477 34.7688 22.2124 34.6036 22.286L34.0549 22.2807Z" fill="#FACBB6"/>
</g>
<path fill-rule="evenodd" clip-rule="evenodd" d="M34.2404 20.1449H34.233H34.2256H34.2182H34.2108H34.2034H34.196H34.1886H34.1812H34.1738H34.1665H34.1591L34.1517 20.1519L34.1443 20.1589H34.1369L34.1295 20.1659L34.1221 20.1729L34.1147 20.1798L34.1073 20.1868L34.0999 20.1938L34.0925 20.2008L34.0851 20.2078L34.0777 20.2147L34.0703 20.2217L34.0629 20.2287L34.0555 20.2357L34.0481 20.2427L34.0407 20.2497L34.0333 20.2566L34.0259 20.2636L34.0185 20.2706V20.2776V20.2846V20.2916V20.2985V20.3055V20.3125V20.3195V20.3265V20.3335V20.3404L34.0111 20.3544L34.0038 20.3684L33.9964 20.3823L33.989 20.3963L33.9816 20.4103V20.4242V20.4382L33.9742 20.4522V20.4661V20.4801V20.494V20.508V20.522V20.5359V20.5499V20.5639V20.5709V20.5848V20.5988V20.6128V20.6267V20.6407V20.6546V20.6686V20.6896L33.9668 20.7035L33.952 20.7315L33.9298 20.7454L33.915 20.7245L33.9002 20.6965L33.8928 20.6826V20.6616V20.6477V20.6337V20.6197V20.6058V20.5918V20.5778V20.5639V20.5569V20.5429V20.529V20.515V20.501V20.4871V20.4731V20.4591V20.4452V20.4312V20.4172L33.9002 20.4033L33.9076 20.3893L33.915 20.3753L33.9224 20.3614L33.9298 20.3474L33.9372 20.3335V20.3265V20.3195V20.3125V20.3055V20.2985L33.9446 20.2916L33.952 20.2846L33.9594 20.2776L33.9668 20.2706L33.9742 20.2636L33.9816 20.2566L33.989 20.2497L33.9964 20.2427L34.0038 20.2357L34.0111 20.2287L34.0185 20.2217L34.0259 20.2147L34.0333 20.2078L34.0407 20.2008L34.0481 20.1938L34.0555 20.1868L34.0629 20.1798L34.0703 20.1729L34.0777 20.1659L34.0851 20.1589L34.0925 20.1519L34.0999 20.1449L34.1073 20.1379L34.1147 20.131L34.1221 20.124L34.1295 20.117L34.1369 20.11L34.1443 20.103H34.1517H34.1591H34.1665H34.1738H34.1812H34.1886H34.196H34.2034H34.2108H34.2182H34.2256H34.233H34.2404H34.2478H34.2552H34.2626H34.27H34.2774H34.2848H34.2922H34.2996H34.307H34.3144H34.3218H34.3291H34.3365H34.3439H34.3513H34.3587H34.3661H34.3735H34.3809H34.3883H34.3957L34.4031 20.11L34.4105 20.117L34.4179 20.124L34.4253 20.131L34.4327 20.1379L34.4401 20.1449L34.4475 20.1519L34.4549 20.1589L34.4623 20.1659L34.4697 20.1729L34.4771 20.1798L34.4845 20.1868L34.4918 20.1938L34.4992 20.2008V20.2078V20.2147V20.2217L34.5066 20.2287L34.514 20.2427L34.5214 20.2566L34.5288 20.2706L34.5362 20.2846L34.5436 20.2985L34.551 20.3125L34.5584 20.3265L34.5658 20.3404L34.5732 20.3544L34.5806 20.3684V20.3823V20.3963V20.4103V20.4242V20.4382V20.4522V20.4661V20.4801V20.494V20.508V20.522V20.5359V20.5499V20.5639V20.5778V20.5918V20.6128V20.6337V20.6546V20.6686V20.6756L34.5436 20.7175L34.4992 20.6826V20.6756V20.6616V20.6407V20.6197V20.5988V20.5848V20.5709V20.5569V20.5429V20.529V20.515V20.501V20.4871V20.4731V20.4591V20.4452V20.4312V20.4172V20.4033V20.3893V20.3753L34.4918 20.3614L34.4845 20.3544L34.4771 20.3474L34.4697 20.3404L34.4623 20.3335L34.4549 20.3265L34.4475 20.3195L34.4401 20.3125L34.4327 20.3055L34.4253 20.2985L34.4179 20.2916V20.2846V20.2776V20.2706V20.2636V20.2566H34.4105H34.4031H34.3957H34.3883H34.3809H34.3735H34.3661L34.2404 20.1449Z" fill="#FACBB6"/>
</svg>
