<svg width="278" height="229" viewBox="0 0 278 229" fill="none" xmlns="http://www.w3.org/2000/svg">
<path opacity="0.23" d="M23.8428 204.594C16.9898 195.123 3.49456 174.705 0.595197 144.201C-2.88404 107.67 8.92428 59.577 35.124 47.4C60.7439 35.469 75.3461 69.2325 108.504 60.807C141.557 52.443 142.19 15.051 177.562 3.1815C203.076 -5.367 231.701 4.34999 248.517 19.971C283.837 52.6275 290.743 132.393 250.89 204.594H23.8428Z" fill="#D9D9D9"/>
<path fill-rule="evenodd" clip-rule="evenodd" d="M69.1399 166.867C71.1028 165.289 68.9322 126.359 67.7624 126.786C65.1324 127.694 52.0152 128.297 49.9525 130.994C48.7982 132.547 48.8469 135.854 48.773 137.818C48.5383 144.062 48.1325 162.53 51.5384 165.533C53.4951 167.189 67.1168 168.512 69.1399 166.867Z" fill="#2A94F4"/>
<path fill-rule="evenodd" clip-rule="evenodd" d="M53.2396 131.366C50.8483 131.969 50.868 136.578 50.9408 139.636C50.9833 144.036 51.14 148.454 51.6052 152.71C52.0017 156.53 50.7383 162.772 53.9979 162.735C55.6277 162.716 56.0043 159.801 55.9011 157.021L55.5007 152.705C55.5235 152.496 55.5387 152.357 55.5044 152.139C55.7511 146.156 54.9468 140.216 54.5804 133.992C54.4888 132.702 54.4241 132.762 54.2489 132.238C54.1307 131.723 53.826 131.319 53.2396 131.366Z" fill="#004970"/>
<path fill-rule="evenodd" clip-rule="evenodd" d="M62.827 141.09C62.4188 138.739 64.2996 136.714 65.1872 135.078C67.5819 130.761 78.9738 114.056 80.2314 114.862C83.1923 116.727 77.2734 126.916 74.5477 132.672C72.013 137.975 70.4103 143.828 66.6536 144.175C65.6151 144.299 63.2807 143.707 62.827 141.09Z" fill="#F7C0B5"/>
<path fill-rule="evenodd" clip-rule="evenodd" d="M66.4245 132.619L69.5875 127.084L75.5971 132.127L71.1689 142.151C71.1689 142.151 65.8973 135.694 66.4245 132.619Z" fill="#E8E7E7"/>
<path d="M64.3619 164.389L58.3456 153.02C57.0556 146.214 56.158 144.093 58.2055 138.199C58.7253 136.702 60.3898 135.762 61.0895 134.075C62.5524 130.51 64.6494 131.05 66.3023 131.975C70.0508 134.082 70.7089 135.399 71.1121 138.118L73.0141 157.918C73.3687 161.894 66.829 166.698 64.3619 164.389Z" fill="#F7C0B5"/>
<path d="M71.8179 146.61C71.8179 146.61 75.0733 157.592 71.8192 170.162L61.369 169.768C55.2989 166.121 55.4265 159.306 59.7606 149.327C64.3764 141.933 71.8179 146.61 71.8179 146.61Z" fill="#F7C0B5"/>
<path d="M64.4995 138.122C63.105 138.537 61.7625 137.517 61.481 135.867L60.5429 130.22C60.2614 128.57 61.179 126.915 62.5735 126.5C63.968 126.085 65.3106 127.105 65.592 128.755L66.5301 134.402C66.8116 136.052 65.894 137.707 64.4995 138.122Z" fill="#FACBB6"/>
<path d="M63.7751 190.007C62.7575 186.801 63.6608 182.818 63.7437 181.585C63.7437 181.585 64.0234 178.425 63.3456 171.49C62.7146 165.295 65.1795 152.604 69.9723 158.177C73.3477 162.075 72.8844 173.873 71.62 184.179C70.8462 190.436 70.5995 201.18 69.8436 201.125C65.968 200.769 63.7751 190.007 63.7751 190.007Z" fill="#FACBB6"/>
<path fill-rule="evenodd" clip-rule="evenodd" d="M65.8431 156.119C65.8431 156.119 69.4363 156.242 73.4539 154.556C73.2559 154.556 74.4442 180.05 74.0481 180.626C73.652 181.202 61.8821 180.996 61.5425 180.503C61.486 180.42 59.5337 172.279 60.6372 166.357C61.7123 160.436 65.8431 156.735 65.8431 156.119Z" fill="#FD7D7C"/>
<path d="M42.5231 181.661C43.463 178.448 46.3454 175.921 47.0822 175.005C47.0822 175.005 49.0234 172.705 52.2619 166.783C55.1345 161.477 65.1644 155.973 65.9408 163.587C66.47 168.958 58.5094 175.111 51.8834 182.35C47.8657 186.756 41.8228 195.053 41.2546 194.499C38.3998 191.622 42.5231 181.661 42.5231 181.661Z" fill="#FACBB6"/>
<path fill-rule="evenodd" clip-rule="evenodd" d="M69.3259 199.215C69.1339 198.857 68.0221 196.611 70.0122 197.934C71.0383 198.588 72.3386 198.148 73.3489 197.731C75.5754 196.805 76.4352 198.842 77.0649 200.753C75.5541 203.795 67.5106 204.119 66.9265 203.899C66.4169 201.69 67.0471 200.825 66.5372 200.005C66.5693 199.37 68.5777 199.122 69.3259 199.215Z" fill="#01384F"/>
<path fill-rule="evenodd" clip-rule="evenodd" d="M41.7205 193.314C41.869 192.963 42.8555 190.853 43.0598 193.457C43.1855 194.786 44.2719 195.92 45.1705 196.768C47.157 198.634 46.1752 200.395 45.1493 201.869C42.0388 201.652 37.0704 193.598 36.8882 192.907C38.2015 191.427 39.2038 191.693 39.5031 190.817C39.9853 190.573 41.3003 192.513 41.7205 193.314Z" fill="#01384F"/>
<path fill-rule="evenodd" clip-rule="evenodd" d="M68.2147 166.076C68.8609 164.286 68.8459 160.331 68.8459 160.331C68.8459 160.331 66.5506 159.265 65.9768 158.998C57.2871 154.939 58.83 157.923 47.8107 170.953C48.2369 173.621 52.8869 179.147 56.3803 182.085C59.2534 180.552 65.3477 174.148 68.2147 166.076Z" fill="#FD7D7C"/>
<path fill-rule="evenodd" clip-rule="evenodd" d="M60.8105 134.551C60.8105 134.551 63.7713 136.604 65.1981 135.589C67.4845 133.998 66.432 131.882 66.5832 131.99C66.7077 132.111 69.3266 132.22 70.8699 135.428C72.7076 139.248 73.8866 153.567 73.9501 154.108C74.0135 154.649 71.891 157.983 67.8978 158.544C58.7223 159.826 56.6797 159.415 56.351 159.317C56.0579 159.239 55.6951 141.014 58.0115 137.092C58.5773 136.117 59.9061 134.969 60.8105 134.551Z" fill="#E8E7E7"/>
<path fill-rule="evenodd" clip-rule="evenodd" d="M42.5855 163.986C42.5855 163.986 49.6504 149.835 58.1001 145.986C61.5406 144.436 63.6432 140.323 61.9663 137.019C60.2894 133.715 55.6501 135.756 49.2741 143.242C40.1399 153.855 37.5723 167.875 42.5855 163.986Z" fill="#FACBB6"/>
<path fill-rule="evenodd" clip-rule="evenodd" d="M42.9507 163.442C42.2029 164.766 42.3062 165.114 42.206 166.26C42.0677 167.007 41.8611 166.312 41.7157 165.889C41.7228 167.059 41.8484 169.1 41.5686 169.102C41.2889 169.103 40.9599 167.861 40.8454 166.667C40.8454 166.667 40.549 169.78 40.3113 169.857C39.7057 170.11 39.8758 166.773 39.8758 166.773C39.3847 168.22 39.3457 169.639 38.9587 169.617C38.3992 169.62 38.9111 164.738 39.717 162.194C40.1199 160.921 41.0863 159.322 41.0863 159.322C41.0863 159.322 43.2805 162.867 42.9507 163.442Z" fill="#FACBB6"/>
<path fill-rule="evenodd" clip-rule="evenodd" d="M64.3291 138.334C64.3291 138.334 61.3999 131.651 52.7526 138.399L49.0661 141.505L53.3977 149.908C53.3525 149.813 65.9711 143.648 64.3291 138.334Z" fill="#E8E7E7"/>
<path fill-rule="evenodd" clip-rule="evenodd" d="M80.6705 119.279C81.493 117.365 82.6798 116.852 83.5131 116.531C84.0435 116.243 83.4883 116.145 83.1477 116.064C84.0187 115.856 85.5587 115.618 85.5085 115.312C85.4584 115.006 84.4741 114.875 83.5653 114.97C83.5653 114.97 85.8254 114.073 85.8383 113.799C85.9148 113.091 83.4655 113.892 83.4655 113.892C84.4508 113.089 85.4986 112.785 85.4108 112.366C85.3105 111.754 81.7752 113.213 80.0321 114.562C79.1605 115.236 78.1494 116.586 78.1494 116.586C78.1494 116.586 80.4049 119.89 80.6705 119.279Z" fill="#F7C0B5"/>
<path d="M69.5949 123.128C70.051 128.973 66.9093 130.163 64.7281 131.101C61.4962 132.517 51.8488 130.418 51.3927 124.573C50.9366 118.728 56.66 113.658 59.9912 112.926C63.3393 112.173 69.1388 117.283 69.5949 123.128Z" fill="#FACBB6"/>
<path d="M58.1246 127.382C59.6004 127.496 60.6463 128.251 60.4859 128.984C59.9926 131.464 59.0499 132.424 57.5741 132.309C56.0982 132.194 55.4549 131.063 55.6109 129.684C55.75 128.326 56.6487 127.267 58.1246 127.382Z" fill="#FACBB6"/>
<path fill-rule="evenodd" clip-rule="evenodd" d="M59.677 131.264C59.677 131.264 58.1483 135.508 52.5604 131.449C47.8687 128.005 49.8719 125.852 49.5556 125.053C46.8144 117.919 49.2393 113.983 53.3511 111.584C55.2489 110.477 54.9326 108.079 56.8831 106.664C57.5684 106.172 60.9422 106.418 60.3096 110.477C60.3096 110.6 61.5748 108.325 62.1019 108.079C65.1595 106.603 67.6371 112.999 65.054 114.536C61.1531 116.873 58.7281 118.841 57.5684 122.531C56.3032 126.406 60.6259 126.59 59.7824 128.927C59.7297 129.112 58.6227 128.804 58.4646 128.804C58.1483 128.804 56.9358 128.804 56.6195 128.804C55.7761 128.804 55.1435 132.925 59.677 131.264Z" fill="#01384F"/>
<path fill-rule="evenodd" clip-rule="evenodd" d="M66.8821 133.118C66.8821 133.118 69.9752 136.629 71.1879 139.76C71.4657 140.547 71.7942 141.326 72.0214 142.119C72.4507 143.433 72.892 145.431 72.892 145.431C72.9358 145.904 72.8487 144.41 72.9603 146.722C73.1227 149.029 73.8235 151.062 73.3386 154.681L73.4901 155.209C73.4901 155.209 74.5056 152.892 74.7856 151.488C75.085 149.739 74.7269 146.979 74.7456 147.182C74.4945 145.023 72.7237 136.419 68.6235 133.104C66.4596 131.324 66.9082 132.294 66.6611 132.393C66.2621 132.512 67.0403 133.166 66.8821 133.118Z" fill="#2A94F4"/>
<path fill-rule="evenodd" clip-rule="evenodd" d="M55.5418 134.843C55.5418 134.843 57.5683 136.071 57.6255 136.064C58.0016 136.37 57.0638 135.005 58.8305 137.184C61.5601 140.372 61.523 145.604 61.3991 148.021C61.1311 152.011 59.257 154.932 56.8166 157.994C54.9989 160.272 56.7094 158.714 55.5136 159.572L54.585 160.183C54.585 160.183 56.5329 159.938 58.6249 158.12C63.6038 153.677 65.0732 143.885 63.2899 139.024C62.2033 136.052 59.7297 133.75 56.8198 133.623L55.0761 134.196C54.2556 134.723 55.7137 134.822 55.5418 134.843Z" fill="#2A94F4"/>
<path d="M114.062 18.0712C117.272 15.6676 118.191 10.6606 116.115 6.8878C114.039 3.11498 109.754 2.00501 106.544 4.40862C103.335 6.81223 102.416 11.8192 104.492 15.592C106.568 19.3649 110.853 20.4748 114.062 18.0712Z" fill="#01384F"/>
<path d="M111.77 26.8312C114.416 24.8496 115.171 20.7176 113.457 17.6022C111.742 14.4867 108.208 13.5676 105.562 15.5492C102.916 17.5308 102.16 21.6628 103.875 24.7782C105.589 27.8936 109.124 28.8128 111.77 26.8312Z" fill="#2A94F4"/>
<path d="M105.342 39.9128L105.394 50.5523C105.394 52.8278 106.607 52.5203 108.504 52.4588C110.139 52.4588 111.667 52.0898 111.826 50.1833L111.351 36.7148L105.342 39.9128Z" fill="#DBA17B"/>
<path d="M117.624 25.7661C117.624 31.9161 113.565 36.8361 108.504 36.8361C103.444 36.8361 99.3846 31.8546 99.3846 25.7661C99.3846 19.6161 103.444 15.4956 108.504 15.4956C113.565 15.4956 117.624 19.6776 117.624 25.7661Z" fill="#01384F"/>
<path d="M119.206 31.3007C119.206 32.8997 118.099 34.1912 116.728 34.1912C115.358 34.1912 114.25 32.8997 114.25 31.3007C114.25 29.7017 115.358 28.4102 116.728 28.4102C118.099 28.4102 119.206 29.7017 119.206 31.3007Z" fill="#DBA17B"/>
<path d="M100.017 34.1912C101.385 34.1912 102.495 32.897 102.495 31.3007C102.495 29.7043 101.385 28.4102 100.017 28.4102C98.6487 28.4102 97.5394 29.7043 97.5394 31.3007C97.5394 32.897 98.6487 34.1912 100.017 34.1912Z" fill="#DBA17B"/>
<path d="M116.043 25.949C116.043 29.5775 115.568 32.7755 115.146 34.9895C114.725 37.2035 113.459 38.741 111.667 39.971L111.351 40.217C109.453 41.5085 107.081 41.57 105.183 40.2785C103.285 38.987 101.915 37.3265 101.493 34.9895C100.755 30.6845 100.65 25.949 100.65 25.949C100.65 25.949 99.9115 16.724 108.241 16.9085C116.57 17.093 116.043 25.949 116.043 25.949Z" fill="#DBA17B"/>
<path d="M113.512 18.0161C113.512 18.0161 111.509 28.3481 99.8589 27.4256C99.8589 27.4256 100.333 17.2781 105.974 16.4171C105.974 16.4171 111.509 15.4946 113.512 18.0161Z" fill="#01384F"/>
<path d="M110.613 16.9102C110.613 16.9102 111.035 24.0442 115.99 28.1032L116.728 24.7207C116.728 24.7207 117.519 17.6482 110.613 16.9102Z" fill="#01384F"/>
<path d="M102.284 25.7646L100.913 30.1927L100.333 25.7646H102.284Z" fill="#01384F"/>
<path d="M114.408 25.7646L115.779 29.8237L116.359 25.7646H114.408Z" fill="#01384F"/>
<path d="M98.3299 200.423L98.1191 184.987L104.34 184.618L103.918 200.792L98.3299 200.423Z" fill="#DBA17B"/>
<path d="M105.13 197.412C105.13 197.412 100.333 199.811 98.1193 195.998L87.418 203.316L106.659 203.132L105.13 197.412Z" fill="#01384F"/>
<path d="M87.3568 205.448L106.598 205.291L106.585 203.2L87.3442 203.357L87.3568 205.448Z" fill="#01384F"/>
<path d="M139.659 200.423L136.971 184.987L130.75 184.618L134.071 200.792L139.659 200.423Z" fill="#DBA17B"/>
<path d="M132.859 197.412C132.859 197.412 137.656 199.811 139.87 195.998L150.571 203.316L131.33 203.132L132.859 197.412Z" fill="#01384F"/>
<path d="M150.634 203.341L131.393 203.184L131.381 205.275L150.622 205.432L150.634 203.341Z" fill="#01384F"/>
<path d="M106.29 186.895L109.928 99.9956L111.246 99.8726L128.958 186.957L138.342 185.788L127.113 102.087C127.113 102.087 123.739 87.2036 117.519 78.2246L104.498 76.9946C104.498 76.9946 93.4277 91.5701 93.6386 107.007C93.8495 122.443 96.169 186.895 96.169 186.895" fill="#FD7D7C"/>
<path d="M94.5874 56.5784L88.6833 82.6544C88.1561 84.6839 89.3158 86.7749 91.1082 87.0824C92.4788 87.3284 94.2184 86.3444 94.6929 84.8069L102.284 59.6534C103.127 57.1319 102.02 54.3029 99.859 53.4419C97.6449 52.5194 95.22 53.934 94.5874 56.5784Z" fill="#DBA17B"/>
<path d="M88.4721 83.6386L85.9418 110.391L90.4226 110.145L94.6926 84.5611C95.0089 82.5316 93.7964 80.0716 92.0568 79.7641C90.2645 79.4566 88.6303 81.5476 88.4721 83.6386Z" fill="#DBA17B"/>
<path d="M86.5745 108.543C86.5745 108.543 80.3013 117.768 86.6799 122.627C87.1016 122.934 87.6815 122.873 87.9978 122.442L88.0505 122.381C88.4195 121.889 88.4722 121.151 88.1032 120.659C87.2598 119.429 86.1528 117.03 88.3668 114.14C88.3668 114.14 89.4211 114.57 89.0521 117.03C88.9467 117.645 89.3684 118.26 89.8956 118.199C90.2646 118.199 90.5809 117.891 90.739 117.461C91.2135 115.862 92.0569 111.803 90.001 109.466L86.5745 108.543Z" fill="#DBA17B"/>
<path d="M116.148 53.1374L146.828 86.2859L150.413 81.1814L121.894 48.2789C120.629 46.4954 117.729 45.8804 116.201 47.3564L116.359 47.1719C114.883 48.6479 114.777 51.4154 116.148 53.1374Z" fill="#DBA17B"/>
<path d="M106.132 47.4771L97.8028 54.1806L104.55 76.9356L117.571 78.2271L119.258 57.3171L118.626 46.3086L106.132 47.4771Z" fill="#DBA17B"/>
<path d="M102.442 50.123C102.442 50.123 104.129 56.273 109.084 54.9815C114.039 53.69 114.197 46.6175 114.197 46.6175L120.629 46.064L118.046 73.862H101.651L96.8011 53.2595L102.442 50.123Z" fill="#2A94F4"/>
<path d="M189.529 209.408L189.265 188.867L181.99 188.437L183.045 209.9L189.529 209.408Z" fill="#FACBB6"/>
<path d="M182.202 205.842C182.202 205.842 187.738 208.671 190.373 204.181L203.869 212.853L180.516 212.668L182.202 205.842Z" fill="#01384F"/>
<path d="M203.879 212.89L180.526 212.705L180.511 215.165L203.864 215.35L203.879 212.89Z" fill="white"/>
<path d="M135.073 209.778L141.873 189.237L149.148 188.807L141.557 210.27L135.073 209.778Z" fill="#FACBB6"/>
<path d="M143.982 206.087C143.982 206.087 138.447 208.916 135.811 204.426L122.316 213.098L145.669 212.913L143.982 206.087Z" fill="#01384F"/>
<path d="M122.37 215.513L145.723 215.328L145.709 212.868L122.355 213.053L122.37 215.513Z" fill="white"/>
<path d="M188 103.443L193.377 199.137L177.404 199.322L171.816 118.265L148.568 197.6L131.12 195.509L156.581 103.443H188Z" fill="#01384F"/>
<path d="M158.9 75.9516C158.9 75.9516 150.413 97.9686 146.196 121.708L141.821 120.662C141.821 120.662 144.298 92.0031 150.15 70.7241L158.9 75.9516Z" fill="#FACBB6"/>
<path d="M142.242 118.754C142.242 118.754 134.81 129.762 142.453 135.728C142.98 136.097 143.613 136.035 144.035 135.543L144.088 135.482C144.562 134.928 144.562 134.067 144.14 133.452C143.086 131.976 141.768 129.024 144.404 125.58C144.404 125.58 145.669 126.072 145.247 129.086C145.142 129.824 145.616 130.562 146.302 130.562C146.723 130.562 147.145 130.193 147.303 129.701C147.83 127.733 148.885 122.936 146.354 120.045L142.242 118.754Z" fill="#FACBB6"/>
<path d="M158.795 54.1191C158.795 54.1191 152.838 56.0871 148.252 69.6786L159.322 77.6121L161.694 70.2936L158.795 54.1191Z" fill="#FD7D7C"/>
<path d="M186.365 73.4311C186.365 73.4311 194.273 95.4481 198.226 119.187L202.338 118.142C202.338 118.142 200.019 89.4826 194.536 68.2036L186.365 73.4311Z" fill="#FACBB6"/>
<path d="M201.917 116.173C201.917 116.173 208.822 127.181 201.706 133.147C201.231 133.516 200.599 133.454 200.23 132.962L200.177 132.901C199.755 132.347 199.755 131.486 200.124 130.871C201.073 129.395 202.338 126.443 199.861 122.999C199.861 122.999 198.701 123.491 199.07 126.505C199.175 127.243 198.701 127.981 198.068 127.981C197.647 127.981 197.278 127.612 197.172 127.12C196.645 125.152 195.696 120.355 198.068 117.464L201.917 116.173Z" fill="#FACBB6"/>
<path d="M186.471 51.5986C186.471 51.5986 192.006 53.5666 196.276 67.1581L185.944 75.0916L183.73 67.7731L186.471 51.5986Z" fill="#FD7D7C"/>
<path d="M178.405 47.229L182.254 54.1785C183.677 54.7935 185.417 58.176 185.258 60.0825C185.258 60.267 185.206 60.4515 185.258 60.636L188.579 103.378L155.105 107.929L157.319 56.7C157.055 55.4085 157.372 54.7935 158.373 54.3015L166.07 50.673L178.405 47.229Z" fill="#FD7D7C"/>
<path d="M173.345 50.3688L172.976 39.5448L165.806 39.2988L165.385 51.9678C165.332 53.3823 166.334 53.0748 167.546 53.0133L171.5 52.7673C172.554 52.7673 173.397 51.6603 173.345 50.3688Z" fill="#FACBB6"/>
<path d="M166.07 41.8185L173.239 46.8L172.976 39.6045L166.07 41.8185Z" fill="#F6B7A0"/>
<path d="M181.569 31.8577C181.569 33.6412 180.356 35.0557 178.88 35.0557C177.404 35.0557 176.192 33.6412 176.192 31.8577C176.192 30.0742 177.404 28.6597 178.88 28.6597C180.356 28.7212 181.569 30.1357 181.569 31.8577Z" fill="#FACBB6"/>
<path d="M157.583 31.8577C157.583 33.6412 158.795 35.0557 160.271 35.0557C161.747 35.0557 162.96 33.6412 162.96 31.8577C162.96 30.0742 161.747 28.6597 160.271 28.6597C158.795 28.6597 157.583 30.1357 157.583 31.8577Z" fill="#FACBB6"/>
<path d="M177.931 26.1988C177.931 30.2578 177.457 33.7633 176.929 36.2848C176.455 38.7448 175.084 40.4053 173.134 41.8198L172.765 42.0658C170.709 43.5418 168.126 43.5418 166.017 42.1273C163.909 40.7128 162.485 38.8678 162.011 36.2233C161.167 31.4878 161.115 26.1988 161.115 26.1988C161.115 26.1988 160.324 15.9283 169.391 16.1128C178.511 16.2973 177.931 26.1988 177.931 26.1988Z" fill="#FACBB6"/>
<path d="M161.642 30.3172C161.642 30.3172 163.54 23.0602 162.169 18.3247C162.169 18.3247 157.899 20.9077 161.642 30.3172Z" fill="#01384F"/>
<path d="M177.615 30.3172C177.615 30.3172 175.19 23.0602 176.613 18.3247C176.561 18.3247 180.936 20.2927 177.615 30.3172Z" fill="#01384F"/>
<path d="M161.537 19.4349C161.537 19.4349 173.503 26.6919 178.142 20.9724C178.142 20.9724 181.938 16.4214 177.773 12.9159C173.609 9.41045 164.014 15.5604 164.014 15.5604C164.014 15.5604 161.853 16.1754 161.537 19.4349Z" fill="#01384F"/>
<path d="M161.537 19.4358C161.537 19.4358 159.323 14.7618 165.649 12.4248C165.649 12.4248 167.177 14.3313 164.963 16.7913C162.802 19.2513 161.537 19.4358 161.537 19.4358Z" fill="#01384F"/>
<path d="M167.915 49.8781L161.747 52.7686L170.287 55.4746L176.877 47.6641L167.915 49.8781Z" fill="#FACBB6"/>
<path fill-rule="evenodd" clip-rule="evenodd" d="M214.679 136.727C215.062 134.278 214.573 130.031 218.218 127.64C219.182 127.034 220.551 121.966 227.057 124.701C237.295 129.014 236.992 137.329 237.748 138.196C240.503 141.368 238.725 144.983 237.367 146.258C237.473 146.241 239.044 149.143 237.775 151.048C235.59 154.348 234.251 151.903 233.695 151.725C234.779 152.92 235.462 155.544 233.564 158.192C232.067 160.247 229.589 158.549 228.43 157.972C227.777 157.619 227.198 156.914 226.633 156.357C226.709 157.142 226.762 154.896 226.422 155.556C225.207 157.756 221.895 159.412 220.903 155.813C221.141 155.776 220.56 157.005 220.488 157.092C220.061 157.69 219.045 158.038 218.451 158.018C216.858 157.964 216.098 156.224 215.908 154.244C216.067 154.219 215.671 154.585 215.595 154.635C215.341 154.788 215.064 154.983 214.772 155.029C214.003 155.149 213.38 154.261 212.853 153.547C211.929 152.327 211.437 150.849 211.952 149.213C212.01 148.977 212.627 148.122 212.624 148.084C212.226 148.146 211.896 147.515 211.618 147.142C210.908 146.191 210.419 144.751 210.528 143.369C210.613 142.293 211.023 141.243 211.508 140.409C212.474 138.703 214.224 139.832 214.679 136.727Z" fill="#01384F"/>
<path fill-rule="evenodd" clip-rule="evenodd" d="M217.258 184.846C215.244 183.292 217.437 145.066 218.665 145.431C221.339 146.335 234.818 146.907 236.928 149.565C238.096 151.103 238.064 154.306 238.138 156.211C238.38 162.354 238.776 180.495 235.303 183.451C233.365 185.155 219.379 186.457 217.258 184.846Z" fill="#FD7D7C"/>
<path fill-rule="evenodd" clip-rule="evenodd" d="M234.421 151.32C236.884 151.93 236.863 156.4 236.785 159.452C236.743 163.74 236.603 168.105 236.076 172.343C235.651 176.07 236.995 182.252 233.581 182.162C231.874 182.117 231.495 179.259 231.613 176.573L232.036 172.351C232.015 172.168 231.994 171.985 232.025 171.794C231.775 165.877 232.598 160.041 232.968 153.965C233.09 152.705 233.143 152.697 233.303 152.238C233.509 151.71 233.78 151.295 234.421 151.32Z" fill="#FED17A"/>
<path fill-rule="evenodd" clip-rule="evenodd" d="M222.743 156.472C223.172 153.96 221.212 151.873 220.227 150.114C217.673 145.565 205.635 127.857 204.295 128.697C201.155 130.699 207.399 141.476 210.3 147.553C212.982 153.201 214.671 159.364 218.67 159.749C219.763 159.911 222.27 159.278 222.743 156.472Z" fill="#DBA17B"/>
<path d="M221.099 181.163L227.473 169.155C228.85 161.944 229.785 159.699 227.619 153.455C227.068 151.862 225.295 150.896 224.551 149.071C223.014 145.315 220.789 145.866 219.038 146.829C215.051 149.066 214.374 150.451 213.948 153.329L211.951 174.331C211.564 178.548 218.498 183.617 221.099 181.163Z" fill="#F7C0B5"/>
<path d="M213.198 162.351C213.198 162.351 209.758 173.977 213.201 187.31L224.281 186.887C230.699 183.022 230.572 175.804 225.99 165.243C221.086 157.398 213.198 162.351 213.198 162.351Z" fill="#F7C0B5"/>
<path d="M220.942 153.352C222.424 153.793 223.846 152.71 224.132 150.979L225.124 145.006C225.423 143.253 224.449 141.5 222.986 141.075C221.523 140.65 220.083 141.717 219.797 143.448L218.805 149.421C218.518 151.153 219.48 152.927 220.942 153.352Z" fill="#DBA17B"/>
<path d="M212.656 218.474C215.749 213.451 219.701 203.211 217.695 200.324C217.695 200.324 219.821 196.601 221.557 189.476C223.13 183.111 219.608 170.382 213.785 175.232C209.678 178.632 211.238 190.061 211.046 201.068C210.905 207.757 212.179 219.213 212.656 218.474Z" fill="#DBA17B"/>
<path d="M233.11 207.837C233.523 204.051 231.709 199.845 231.334 198.493C231.334 198.493 230.344 195.063 229.62 187.195C228.972 180.17 221.199 168.836 217.199 176.072C214.371 181.156 219.793 191.986 223.37 203.105C225.543 209.86 228.118 221.731 228.911 221.488C233.021 220.255 233.11 207.837 233.11 207.837Z" fill="#DBA17B"/>
<path fill-rule="evenodd" clip-rule="evenodd" d="M211.786 215.705C211.872 215.236 212.389 212.59 210.709 214.67C209.854 215.732 208.398 215.784 207.297 215.71C204.77 215.559 204.459 217.972 204.354 220.151C206.719 222.655 214.935 220.03 215.467 219.548C215.362 217.103 214.496 216.5 214.815 215.42C214.603 214.821 212.526 215.323 211.786 215.705Z" fill="#FD7D7C"/>
<path fill-rule="evenodd" clip-rule="evenodd" d="M229.558 218.142C229.668 217.717 230.326 215.322 228.443 217.054C227.485 217.94 225.921 217.817 224.743 217.619C222.038 217.182 221.611 219.385 221.414 221.395C223.853 223.996 232.768 222.525 233.357 222.141C233.339 219.859 232.434 219.198 232.819 218.233C232.679 217.652 230.367 217.875 229.558 218.142Z" fill="#FD7D7C"/>
<path fill-rule="evenodd" clip-rule="evenodd" d="M216.361 171.939C216.466 171.693 216.572 171.447 216.73 171.262C217.942 169.479 222.159 168.064 222.159 168.064C222.159 168.064 224.69 169.417 225.27 169.848C232.808 175.321 233.599 184.546 234.073 190.204C232.017 191.68 224.057 192.972 218.733 192.91C218.364 193.341 209.139 191.68 209.139 191.68C209.139 191.68 209.244 185.653 209.929 179.749C210.404 175.444 211.564 170.832 211.511 170.77C213.25 171.385 214.99 171.754 216.361 171.939Z" fill="#2A94F4"/>
<path fill-rule="evenodd" clip-rule="evenodd" d="M218.786 147.093C218.786 147.093 215.57 151.029 214.516 154.35C214.252 155.149 213.989 156.01 213.778 156.871C213.409 158.286 213.145 160.315 213.145 160.315C213.145 160.807 213.092 159.27 213.198 161.668C213.251 164.005 212.671 166.158 213.62 169.725L213.514 170.278C213.514 170.278 212.091 168.064 211.669 166.65C211.142 164.928 211.247 162.099 211.247 162.283C211.353 160.069 212.46 151.213 216.835 147.339C219.155 145.309 218.733 146.293 219.049 146.355C219.471 146.478 218.68 147.216 218.786 147.093Z" fill="#FD7D7C"/>
<path fill-rule="evenodd" clip-rule="evenodd" d="M224.865 149.578C224.865 149.578 221.726 151.728 220.204 150.688C217.786 148.999 218.88 146.745 218.763 146.859C218.62 146.961 216.515 147.57 214.873 150.951C212.928 154.999 211.024 169.699 210.947 170.27C210.896 170.852 213.133 174.376 217.372 174.955C227.098 176.319 229.335 172.945 229.704 172.846C230.015 172.754 230.288 156.391 227.834 152.228C227.233 151.244 225.82 150.019 224.865 149.578Z" fill="#CDEAFB"/>
<path fill-rule="evenodd" clip-rule="evenodd" d="M243.353 174.426C243.353 174.426 234.851 172.988 231.441 160.146C230.149 155.367 227.567 149.492 224.995 152.237C222.423 154.981 222.625 160.946 227.887 169.257C233.321 177.793 246.598 180.396 243.353 174.426Z" fill="#DBA17B"/>
<path fill-rule="evenodd" clip-rule="evenodd" d="M242.153 177.595C243.244 177.591 243.519 177.875 244.342 178.346C244.879 178.637 244.422 178.003 244.193 177.686C245.005 178.261 246.405 179.473 246.52 179.2C246.636 178.927 245.82 177.973 245.066 177.262C245.066 177.262 247.321 178.636 247.473 178.433C247.824 177.994 245.413 176.443 245.413 176.443C246.519 176.716 247.581 177.401 247.66 177.058C247.808 176.475 244.256 174.582 242.223 174.008C241.248 173.739 239.839 173.873 239.839 173.873C239.839 173.873 241.621 177.684 242.153 177.595Z" fill="#DBA17B"/>
<path fill-rule="evenodd" clip-rule="evenodd" d="M203.809 133.408C202.902 131.404 201.698 130.874 200.828 130.526C200.267 130.284 200.91 130.131 201.232 130.055C200.326 129.813 198.67 129.603 198.693 129.239C198.717 128.874 199.789 128.766 200.707 128.825C200.707 128.825 198.287 127.948 198.251 127.614C198.25 126.732 200.872 127.594 200.872 127.594C199.858 126.79 198.702 126.412 198.785 126.017C198.916 125.333 202.611 126.968 204.507 128.377C205.413 129.06 206.499 130.531 206.499 130.531C206.499 130.531 204.144 134.031 203.809 133.408Z" fill="#DBA17B"/>
<path d="M215.556 137.493C215.064 143.696 218.414 144.928 220.707 145.954C224.13 147.455 234.336 145.223 234.829 139.02C235.321 132.817 229.255 127.475 225.726 126.676C222.181 125.858 216.048 131.291 215.556 137.493Z" fill="#DBA17B"/>
<path d="M227.712 141.969C226.152 142.092 225.046 142.877 225.202 143.683C225.74 146.294 226.743 147.337 228.302 147.214C229.862 147.092 230.554 145.874 230.386 144.438C230.232 142.984 229.271 141.847 227.712 141.969Z" fill="#DBA17B"/>
<path fill-rule="evenodd" clip-rule="evenodd" d="M222.974 126.139C221.668 129.586 221.618 133.631 223.004 137.332C223.458 138.561 223.583 139.797 224.061 141.041C224.966 143.426 226.669 144.335 227.767 143.395C229.071 142.302 229.944 144.07 229.773 144.913C229.438 146.499 230.295 146.43 230.577 146.392C230.858 146.355 231.153 146.045 231.384 145.906C232.692 145.272 233.657 143.899 234.326 142.448C235.048 140.855 235.871 137.743 235.433 135.927C233.981 129.972 228.552 125.431 227.799 125.072C226.339 124.383 223.465 124.685 222.731 126.622" fill="#01384F"/>
<path fill-rule="evenodd" clip-rule="evenodd" d="M228.485 150.289C228.485 150.289 226.535 151.704 226.482 151.765C226.113 152.134 226.957 150.658 225.322 152.995C222.845 156.501 223.319 161.544 223.741 163.942C224.374 167.755 226.588 170.4 229.382 173.106C231.437 175.074 229.592 173.782 230.858 174.459L231.859 174.951C231.859 174.951 229.856 174.951 227.589 173.413C222.107 169.723 219.682 160.314 221.052 155.332C221.843 152.319 224.215 149.736 227.167 149.305L228.96 149.613C229.803 150.043 228.327 150.289 228.485 150.289Z" fill="#FD7D7C"/>
<path fill-rule="evenodd" clip-rule="evenodd" d="M238.029 182.533C237.361 182.841 236.931 183.64 236.931 184.501C237.026 186.592 237.17 190.405 237.218 192.496C237.265 193.357 237.791 194.157 238.507 194.341C239.844 194.71 241.85 195.325 242.901 195.633C243.331 195.756 243.761 195.694 244.143 195.448C245.194 194.772 247.486 193.419 248.776 192.681C249.301 192.373 249.683 191.697 249.731 191.02C249.826 189.052 250.018 185.055 250.161 182.841C250.209 181.918 249.683 181.057 248.919 180.811C247.773 180.442 246.197 179.827 245.337 179.581C244.955 179.458 244.573 179.458 244.191 179.643C242.901 180.196 239.749 181.734 238.029 182.533Z" fill="#EEC2B0"/>
<mask id="mask0_7012_4039" style="mask-type:luminance" maskUnits="userSpaceOnUse" x="236" y="179" width="15" height="17">
<path d="M238.029 182.533C237.361 182.841 236.931 183.64 236.931 184.501C237.026 186.592 237.17 190.405 237.218 192.496C237.265 193.357 237.791 194.157 238.507 194.341C239.844 194.71 241.85 195.325 242.901 195.633C243.331 195.756 243.761 195.694 244.143 195.448C245.194 194.772 247.486 193.419 248.776 192.681C249.301 192.373 249.683 191.697 249.731 191.02C249.826 189.052 250.018 185.055 250.161 182.841C250.209 181.918 249.683 181.057 248.919 180.811C247.773 180.442 246.197 179.827 245.337 179.581C244.955 179.458 244.573 179.458 244.191 179.643C242.901 180.196 239.749 181.734 238.029 182.533Z" fill="white"/>
</mask>
<g mask="url(#mask0_7012_4039)">
<path fill-rule="evenodd" clip-rule="evenodd" d="M242.75 196.242C242.754 194.8 242.706 193.421 242.659 191.976C242.644 191.057 242.628 190.138 242.612 189.22C242.604 188.105 242.408 186.65 242.697 185.62C242.987 184.589 243.8 184.312 244.515 183.963C245.641 183.377 246.721 182.658 247.751 181.935C248.679 181.272 249.609 180.543 250.537 179.88C250.847 179.637 251.36 179.341 251.698 179.69C252.855 180.942 252.394 183.863 252.23 185.557C251.985 188.098 251.735 192.081 250.16 193.95C249.215 195.071 247.839 195.641 246.661 196.289L242.75 196.242Z" fill="#FACBB6"/>
</g>
<path fill-rule="evenodd" clip-rule="evenodd" d="M244.073 177.43H244.02H243.967H243.914H243.862H243.809H243.756H243.704H243.651H243.598H243.545H243.493L243.44 177.492L243.387 177.553H243.335L243.282 177.615L243.229 177.676L243.176 177.738L243.124 177.799L243.071 177.861L243.018 177.922L242.966 177.984L242.913 178.045L242.86 178.107L242.807 178.168L242.755 178.23L242.702 178.291L242.649 178.353L242.597 178.414L242.544 178.476L242.491 178.537V178.599V178.66V178.722V178.783V178.845V178.906V178.968V179.029V179.091V179.152L242.438 179.275L242.386 179.398L242.333 179.521L242.28 179.644L242.228 179.767V179.89V180.013L242.175 180.136V180.259V180.382V180.505V180.628V180.751V180.874V180.997V181.12V181.182V181.305V181.428V181.551V181.674V181.797V181.92V182.043V182.227L242.122 182.35L242.017 182.596L241.859 182.719L241.753 182.535L241.648 182.289L241.595 182.166V181.981V181.858V181.735V181.612V181.489V181.366V181.243V181.12V181.059V180.936V180.813V180.69V180.567V180.444V180.321V180.198V180.075V179.952V179.829L241.648 179.706L241.7 179.583L241.753 179.46L241.806 179.337L241.859 179.214L241.911 179.091V179.029V178.968V178.906V178.845V178.783L241.964 178.722L242.017 178.66L242.069 178.599L242.122 178.537L242.175 178.476L242.228 178.414L242.28 178.353L242.333 178.291L242.386 178.23L242.438 178.168L242.491 178.107L242.544 178.045L242.597 177.984L242.649 177.922L242.702 177.861L242.755 177.799L242.807 177.738L242.86 177.676L242.913 177.615L242.966 177.553L243.018 177.492L243.071 177.43L243.124 177.369L243.176 177.307L243.229 177.246L243.282 177.184L243.335 177.123L243.387 177.061H243.44H243.493H243.545H243.598H243.651H243.704H243.756H243.809H243.862H243.914H243.967H244.02H244.073H244.125H244.178H244.231H244.283H244.336H244.389H244.442H244.494H244.547H244.6H244.652H244.705H244.758H244.811H244.863H244.916H244.969H245.021H245.074H245.127H245.18L245.232 177.123L245.285 177.184L245.338 177.246L245.391 177.307L245.443 177.369L245.496 177.43L245.549 177.492L245.601 177.553L245.654 177.615L245.707 177.676L245.76 177.738L245.812 177.799L245.865 177.861L245.918 177.922V177.984V178.045V178.107L245.97 178.168L246.023 178.291L246.076 178.414L246.129 178.537L246.181 178.66L246.234 178.783L246.287 178.906L246.339 179.029L246.392 179.152L246.445 179.275L246.498 179.398V179.521V179.644V179.767V179.89V180.013V180.136V180.259V180.382V180.505V180.628V180.751V180.874V180.997V181.12V181.243V181.366V181.551V181.735V181.92V182.043V182.104L246.234 182.473L245.918 182.166V182.104V181.981V181.797V181.612V181.428V181.305V181.182V181.059V180.936V180.813V180.69V180.567V180.444V180.321V180.198V180.075V179.952V179.829V179.706V179.583V179.46L245.865 179.337L245.812 179.275L245.76 179.214L245.707 179.152L245.654 179.091L245.601 179.029L245.549 178.968L245.496 178.906L245.443 178.845L245.391 178.783L245.338 178.722V178.66V178.599V178.537V178.476V178.414H245.285H245.232H245.18H245.127H245.074H245.021H244.969L244.073 177.43Z" fill="#FACBB6"/>
</svg>
