<svg width="22" height="20" viewBox="0 0 22 20" fill="none" xmlns="http://www.w3.org/2000/svg">
<path d="M4.75879 19.1445C3.50195 19.1445 2.77246 18.4326 2.77246 17.2021V8.81738L1.62988 9.78418C1.44531 9.93359 1.24316 10.0654 0.99707 10.0654C0.522461 10.0654 0.241211 9.72266 0.241211 9.3623C0.241211 9.16016 0.329102 8.94922 0.522461 8.79102L9.68066 1.10059C10.3398 0.546875 11.1484 0.546875 11.7988 1.10059L16.4219 4.98535V3.20117C16.4219 2.81445 16.6768 2.56836 17.0547 2.56836H17.9951C18.3818 2.56836 18.6279 2.81445 18.6279 3.20117V6.83984L20.9482 8.79102C21.1328 8.94922 21.2207 9.125 21.2207 9.38867C21.2207 9.81055 20.8867 10.0654 20.4736 10.0654C20.2275 10.0654 20.0254 9.93359 19.8496 9.78418L18.6279 8.75586V17.2021C18.6279 18.4326 17.8984 19.1445 16.6504 19.1445H4.75879ZM13.2666 11.8408V17.7295H16.3516C16.9053 17.7295 17.2129 17.4131 17.2129 16.8418V7.56934L11.0518 2.40137C10.8584 2.22559 10.6211 2.22559 10.4277 2.40137L4.1875 7.63086V16.8418C4.1875 17.4131 4.49512 17.7295 5.05762 17.7295H8.19531V11.8408C8.19531 11.4365 8.45898 11.1729 8.87207 11.1729H12.5986C13.0029 11.1729 13.2666 11.4365 13.2666 11.8408Z" fill="black"/>
</svg>
